<svg width="195" height="58" viewBox="0 0 195 58" fill="none" xmlns="http://www.w3.org/2000/svg">
<g clip-path="url(#clip0_900_1346)">
<path d="M193.188 51.0096C193.188 51.7348 193.045 52.4529 192.767 53.1229C192.49 53.7929 192.082 54.4015 191.569 54.9141C191.056 55.4266 190.447 55.833 189.776 56.1101C189.106 56.3871 188.387 56.5293 187.662 56.5285H6.81621C5.35045 56.53 3.94409 55.9495 2.90642 54.9145C1.86875 53.8796 1.28475 52.4749 1.28284 51.0096V6.99782C1.28475 5.53179 1.86852 4.12643 2.90598 3.09032C3.94344 2.05422 5.34978 1.47206 6.81621 1.47168H187.661C188.386 1.47168 189.105 1.61463 189.776 1.89236C190.446 2.17009 191.055 2.57717 191.569 3.09034C192.082 3.60351 192.489 4.21271 192.766 4.88317C193.044 5.55362 193.187 6.27219 193.187 6.99782L193.188 51.0096Z" fill="white"/>
<path d="M193.188 51.0096C193.188 51.7348 193.045 52.4529 192.767 53.1229C192.49 53.7929 192.082 54.4015 191.569 54.9141C191.056 55.4266 190.447 55.833 189.776 56.11C189.106 56.3871 188.387 56.5293 187.662 56.5285H6.81621C5.35045 56.53 3.94409 55.9495 2.90642 54.9145C1.86875 53.8796 1.28475 52.4749 1.28284 51.0096V6.99782C1.28475 5.53179 1.86852 4.12643 2.90598 3.09032C3.94344 2.05422 5.34978 1.47206 6.81621 1.47168H187.661C188.386 1.47168 189.105 1.61463 189.776 1.89236C190.446 2.17009 191.055 2.57717 191.569 3.09034C192.082 3.60351 192.489 4.21271 192.766 4.88317C193.044 5.55362 193.187 6.27219 193.187 6.99782L193.188 51.0096Z" fill="black"/>
<path d="M41.0796 29.4647C41.0476 25.9067 43.9937 24.1757 44.1285 24.0951C42.4599 21.6631 39.8738 21.3308 38.965 21.3043C36.7929 21.0757 34.686 22.6036 33.5795 22.6036C32.451 22.6036 30.7471 21.3263 28.9107 21.3639C26.5476 21.4003 24.3369 22.7681 23.1244 24.8921C20.6222 29.223 22.4884 35.5873 24.8857 39.088C26.0849 40.8035 27.4862 42.7167 29.3204 42.6494C31.1148 42.5765 31.7851 41.5068 33.9505 41.5068C36.0961 41.5068 36.7255 42.6494 38.5961 42.6063C40.522 42.5765 41.7344 40.8841 42.8917 39.1542C44.2775 37.1903 44.8341 35.2539 44.8562 35.1546C44.812 35.1391 41.1172 33.7282 41.0796 29.4647ZM37.546 19.0014C38.5111 17.7948 39.1715 16.1532 38.9881 14.4873C37.5913 14.5491 35.8443 15.4533 34.8384 16.6334C33.9483 17.6733 33.1533 19.3779 33.3587 20.9808C34.9278 21.0978 36.5389 20.1893 37.546 19.0014Z" fill="white"/>
<path d="M187.662 0.188965H90.7954L128.736 57.8122H187.662C189.468 57.8106 191.2 57.0932 192.477 55.8171C193.755 54.5411 194.475 52.8106 194.478 51.005V6.99902C194.475 5.19307 193.756 3.46202 192.478 2.18543C191.2 0.90883 189.468 0.19087 187.662 0.188965Z" fill="url(#paint0_linear_900_1346)"/>
<path d="M77.3505 45.5859H74.0772L72.2841 39.9531H66.0517L64.3437 45.5859H61.1569L67.3331 26.4094H71.1469L77.3505 45.5859ZM71.7436 37.5899L70.1221 32.5825C69.9506 32.071 69.6277 30.8663 69.155 28.97H69.0973C68.907 29.7856 68.6029 30.9902 68.1864 32.5825L66.5922 37.5899H71.7436ZM93.2026 38.502C93.2026 40.8537 92.564 42.7126 91.2856 44.0772C90.1411 45.2919 88.7185 45.8986 87.022 45.8986C85.1901 45.8986 83.8727 45.2458 83.0727 43.9374V51.1927H79.9997V36.3031C79.9997 34.8261 79.9608 33.3116 79.8859 31.7583H82.5884L82.7599 33.95H82.8176C83.8424 32.2986 85.3976 31.4729 87.4847 31.4729C89.1163 31.4729 90.4784 32.1171 91.5681 33.4067C92.6563 34.6993 93.2026 36.3968 93.2026 38.502ZM90.0719 38.6144C90.0719 37.2686 89.7693 36.159 89.161 35.2843C88.4965 34.3751 87.6043 33.9197 86.4858 33.9197C85.7277 33.9197 85.0387 34.1733 84.4233 34.6734C83.8064 35.1777 83.4028 35.8362 83.214 36.6518C83.1297 36.9568 83.0818 37.2707 83.0713 37.587V39.894C83.0713 40.8984 83.3797 41.7471 83.9966 42.4417C84.6135 43.1333 85.4149 43.4806 86.4008 43.4806C87.5582 43.4806 88.4591 43.0325 89.1033 42.1434C89.7491 41.2514 90.0719 40.0756 90.0719 38.6144ZM109.111 38.502C109.111 40.8537 108.472 42.7126 107.194 44.0772C106.048 45.2919 104.627 45.8986 102.929 45.8986C101.097 45.8986 99.7795 45.2458 98.9795 43.9374V51.1927H95.9066V36.3031C95.9066 34.8261 95.8676 33.3116 95.7927 31.7583H98.4952L98.6668 33.95H98.7244C99.7478 32.2986 101.303 31.4729 103.392 31.4729C105.022 31.4729 106.384 32.1171 107.476 33.4067C108.563 34.6993 109.111 36.3968 109.111 38.502ZM105.979 38.6144C105.979 37.2686 105.675 36.159 105.066 35.2843C104.402 34.3751 103.513 33.9197 102.394 33.9197C101.636 33.9197 100.947 34.1733 100.329 34.6734C99.7117 35.1777 99.3096 35.8362 99.1208 36.6518C99.0271 37.0322 98.9766 37.342 98.9766 37.587V39.894C98.9766 40.8984 99.2865 41.7471 99.9006 42.4417C100.517 43.1319 101.319 43.4806 102.308 43.4806C103.466 43.4806 104.367 43.0325 105.01 42.1434C105.656 41.2514 105.979 40.0756 105.979 38.6144ZM126.897 40.2067C126.897 41.8393 126.326 43.1665 125.192 44.191C123.944 45.3092 122.201 45.8697 119.967 45.8697C117.903 45.8697 116.248 45.472 115 44.6752L115.711 42.1146C117.058 42.9129 118.539 43.3106 120.15 43.3106C121.309 43.3106 122.21 43.0483 122.853 42.5281C123.497 42.0065 123.823 41.3091 123.823 40.4387C123.823 39.6591 123.553 39.0064 123.024 38.4747C122.492 37.9444 121.613 37.4501 120.378 36.9962C117.02 35.744 115.339 33.9125 115.339 31.5032C115.339 29.9297 115.933 28.6414 117.118 27.6342C118.302 26.6284 119.873 26.1255 121.828 26.1255C123.573 26.1255 125.028 26.4295 126.182 27.0362L125.411 29.5406C124.324 28.9527 123.098 28.6587 121.726 28.6587C120.642 28.6587 119.791 28.9253 119.183 29.4556C118.671 29.9297 118.412 30.5075 118.412 31.1934C118.412 31.9499 118.707 32.5782 119.295 33.071C119.806 33.5249 120.737 34.0192 122.083 34.5494C123.735 35.2152 124.948 35.9904 125.725 36.8809C126.508 37.7715 126.897 38.8824 126.897 40.2067ZM137.083 34.0638H133.696V40.7773C133.696 42.4849 134.293 43.3365 135.489 43.3365C136.038 43.3365 136.494 43.2904 136.854 43.1938L136.939 45.5268C136.334 45.753 135.537 45.8669 134.549 45.8669C133.336 45.8669 132.387 45.4965 131.703 44.7559C131.021 44.0152 130.678 42.7745 130.678 41.0281V34.0581H128.66V31.7525H130.678V29.2207L133.696 28.31V31.7525H137.083V34.0638ZM152.336 38.5582C152.336 40.6837 151.727 42.4287 150.514 43.7933C149.244 45.1982 147.555 45.8986 145.449 45.8986C143.417 45.8986 141.801 45.2256 140.596 43.8812C139.391 42.5339 138.788 40.8364 138.788 38.7888C138.788 36.6461 139.411 34.8909 140.652 33.5263C141.896 32.1603 143.571 31.4773 145.677 31.4773C147.706 31.4773 149.336 32.1516 150.57 33.4975C151.749 34.803 152.336 36.489 152.336 38.5582ZM149.15 38.6288C149.15 37.3622 148.876 36.2757 148.327 35.3665C147.683 34.2684 146.761 33.7194 145.566 33.7194C144.335 33.7194 143.391 34.2684 142.748 35.3665C142.197 36.2757 141.923 37.381 141.923 38.6865C141.923 39.9545 142.197 41.0439 142.748 41.9503C143.412 43.0483 144.339 43.5973 145.54 43.5973C146.714 43.5973 147.635 43.0368 148.301 41.9229C148.866 40.992 149.15 39.8983 149.15 38.6288ZM162.329 34.4601C162.009 34.4024 161.685 34.374 161.36 34.3751C160.279 34.3751 159.443 34.7814 158.855 35.5999C158.345 36.3204 158.088 37.2311 158.088 38.3306V45.5859H155.015V36.1129C155.018 34.6613 154.988 33.2099 154.926 31.7597H157.602L157.715 34.4053H157.8C158.126 33.4961 158.636 32.7626 159.336 32.2136C159.978 31.7339 160.757 31.4741 161.558 31.4729C161.841 31.4729 162.098 31.4931 162.326 31.5291L162.329 34.4601ZM176.072 38.0179C176.08 38.4849 176.042 38.9516 175.96 39.4113H166.741C166.775 40.7773 167.222 41.8235 168.078 42.544C168.855 43.1866 169.86 43.5094 171.094 43.5094C172.459 43.5094 173.704 43.2933 174.824 42.8567L175.305 44.9879C173.996 45.5585 172.451 45.8424 170.668 45.8424C168.524 45.8424 166.84 45.2112 165.615 43.9518C164.393 42.691 163.78 40.9964 163.78 38.8738C163.78 36.7902 164.349 35.0538 165.49 33.669C166.683 32.1906 168.296 31.4513 170.325 31.4513C172.319 31.4513 173.828 32.1906 174.853 33.669C175.664 34.8405 176.072 36.293 176.072 38.0179ZM173.142 37.221C173.163 36.3089 172.962 35.5235 172.545 34.8592C172.013 34.0033 171.194 33.5768 170.098 33.5768C169.093 33.5768 168.274 33.9932 167.652 34.829C167.14 35.4933 166.836 36.2916 166.742 37.2181L173.142 37.221Z" fill="white"/>
<path d="M65.1652 19.6293C64.3104 19.6293 63.571 19.5875 62.9556 19.5169V10.2457C63.8164 10.1128 64.6862 10.0472 65.5572 10.0497C69.0813 10.0497 70.7043 11.7832 70.7043 14.609C70.7043 17.8685 68.7873 19.6293 65.1652 19.6293ZM65.6812 11.2385C65.2055 11.2385 64.8005 11.2673 64.4647 11.3365V18.3843C64.6463 18.4131 64.9951 18.4261 65.4851 18.4261C67.7942 18.4261 69.1087 17.1119 69.1087 14.6508C69.1087 12.4562 67.9196 11.2385 65.6812 11.2385ZM75.762 19.6999C73.7758 19.6999 72.4887 18.2172 72.4887 16.2041C72.4887 14.1061 73.8032 12.6103 75.8745 12.6103C77.8318 12.6103 79.1478 14.0225 79.1478 16.0932C79.1478 18.2172 77.7915 19.6999 75.762 19.6999ZM75.8197 13.7141C74.7286 13.7141 74.0295 14.7343 74.0295 16.1609C74.0295 17.5601 74.743 18.5803 75.8053 18.5803C76.8675 18.5803 77.581 17.4895 77.581 16.1321C77.581 14.7487 76.882 13.7141 75.8197 13.7141ZM90.474 12.7501L88.348 19.5458H86.9628L86.0822 16.5946C85.8632 15.8728 85.6809 15.1403 85.5359 14.4H85.5071C85.3961 15.1407 85.1856 15.8828 84.9622 16.5946L84.0253 19.5458H82.6258L80.6252 12.7501H82.1775L82.9472 15.9808C83.1288 16.7503 83.2816 17.4765 83.4084 18.1624H83.4373C83.5482 17.5903 83.7299 16.8756 83.9965 15.9952L84.9622 12.7516H86.1931L87.117 15.926C87.3405 16.6955 87.5221 17.4506 87.6633 18.1639H87.7037C87.8017 17.465 87.9559 16.7229 88.1649 15.926L88.9908 12.7516L90.474 12.7501ZM98.3005 19.5458H96.79V15.6436C96.79 14.4418 96.3288 13.8395 95.4193 13.8395C94.5242 13.8395 93.9087 14.609 93.9087 15.5038V19.5458H92.3982V14.6925C92.3982 14.0917 92.3838 13.4475 92.342 12.7487H93.6709L93.7415 13.7977H93.7833C94.1898 13.0714 95.0142 12.6103 95.9382 12.6103C97.3651 12.6103 98.302 13.7012 98.302 15.4764L98.3005 19.5458ZM102.466 19.5458H100.954V9.63184H102.466V19.5458ZM107.973 19.6999C105.989 19.6999 104.7 18.2172 104.7 16.2041C104.7 14.1061 106.015 12.6103 108.084 12.6103C110.043 12.6103 111.358 14.0225 111.358 16.0932C111.359 18.2172 110.001 19.6999 107.973 19.6999ZM108.03 13.7141C106.939 13.7141 106.24 14.7343 106.24 16.1609C106.24 17.5601 106.954 18.5803 108.014 18.5803C109.078 18.5803 109.79 17.4895 109.79 16.1321C109.791 14.7487 109.093 13.7141 108.03 13.7141ZM117.313 19.5458L117.204 18.7633H117.164C116.702 19.393 116.029 19.6999 115.176 19.6999C113.958 19.6999 113.093 18.8469 113.093 17.6999C113.093 16.0226 114.548 15.1551 117.066 15.1551V15.0297C117.066 14.1349 116.591 13.6867 115.654 13.6867C114.984 13.6867 114.396 13.8553 113.879 14.1911L113.572 13.1983C114.2 12.8063 114.984 12.6103 115.905 12.6103C117.681 12.6103 118.578 13.547 118.578 15.4217V17.9247C118.578 18.6106 118.608 19.1423 118.676 19.5472L117.313 19.5458ZM117.106 16.1609C115.428 16.1609 114.586 16.5673 114.586 17.5313C114.586 18.2446 115.02 18.5933 115.623 18.5933C116.391 18.5933 117.106 18.0068 117.106 17.2099V16.1609ZM125.913 19.5458L125.842 18.4549H125.8C125.366 19.2792 124.637 19.6999 123.618 19.6999C121.979 19.6999 120.766 18.259 120.766 16.2315C120.766 14.1061 122.024 12.6089 123.742 12.6089C124.651 12.6089 125.296 12.9158 125.659 13.5326H125.689V9.63184H127.201V17.7143C127.201 18.3714 127.217 18.9867 127.257 19.5458H125.913ZM125.689 15.547C125.689 14.596 125.059 13.7847 124.098 13.7847C122.978 13.7847 122.293 14.7776 122.293 16.1753C122.293 17.5457 123.004 18.4838 124.068 18.4838C125.018 18.4838 125.689 17.6581 125.689 16.6797V15.547ZM136.788 19.6999C134.803 19.6999 133.516 18.2172 133.516 16.2041C133.516 14.1061 134.83 12.6103 136.9 12.6103C138.859 12.6103 140.173 14.0225 140.173 16.0932C140.175 18.2172 138.819 19.6999 136.788 19.6999ZM136.844 13.7141C135.754 13.7141 135.055 14.7343 135.055 16.1609C135.055 17.5601 135.769 18.5803 136.829 18.5803C137.893 18.5803 138.605 17.4895 138.605 16.1321C138.608 14.7487 137.909 13.7141 136.844 13.7141ZM148.297 19.5458H146.785V15.6436C146.785 14.4418 146.324 13.8395 145.414 13.8395C144.519 13.8395 143.905 14.609 143.905 15.5038V19.5458H142.393V14.6925C142.393 14.0917 142.379 13.4475 142.337 12.7487H143.666L143.736 13.7977H143.778C144.183 13.0714 145.009 12.6089 145.932 12.6089C147.359 12.6089 148.297 13.6997 148.297 15.475V19.5458ZM158.46 13.8827H156.798V17.1826C156.798 18.0226 157.089 18.442 157.677 18.442C157.944 18.442 158.167 18.4131 158.348 18.3714L158.389 19.5184C158.097 19.6308 157.705 19.687 157.217 19.687C156.027 19.687 155.315 19.0299 155.315 17.3094V13.8827H154.323V12.7501H155.315V11.5051L156.798 11.057V12.7487H158.46V13.8827ZM166.457 19.5458H164.947V15.6724C164.947 14.4562 164.488 13.8409 163.577 13.8409C162.794 13.8409 162.065 14.3726 162.065 15.4491V19.5458H160.556V9.63184H162.065V13.7141H162.095C162.571 12.9735 163.26 12.6089 164.139 12.6089C165.577 12.6089 166.457 13.7271 166.457 15.5038V19.5458ZM174.649 16.5111H170.116C170.145 17.7978 170.997 18.5241 172.258 18.5241C172.928 18.5241 173.545 18.4117 174.09 18.2028L174.325 19.2518C173.682 19.5313 172.925 19.6711 172.045 19.6711C169.919 19.6711 168.66 18.3281 168.66 16.2459C168.66 14.1623 169.949 12.5959 171.875 12.5959C173.611 12.5959 174.701 13.8827 174.701 15.8266C174.711 16.056 174.694 16.2857 174.649 16.5111ZM173.264 15.4346C173.264 14.3856 172.735 13.645 171.769 13.645C170.902 13.645 170.216 14.4 170.118 15.4346H173.264Z" fill="white"/>
</g>
<defs>
<linearGradient id="paint0_linear_900_1346" x1="142.635" y1="57.9651" x2="142.635" y2="-149.852" gradientUnits="userSpaceOnUse">
<stop stop-color="#1A1A1A" stop-opacity="0.1"/>
<stop offset="0.123" stop-color="#212121" stop-opacity="0.151"/>
<stop offset="0.308" stop-color="#353535" stop-opacity="0.227"/>
<stop offset="0.532" stop-color="#575757" stop-opacity="0.318"/>
<stop offset="0.783" stop-color="#858585" stop-opacity="0.421"/>
<stop offset="1" stop-color="#B3B3B3" stop-opacity="0.51"/>
</linearGradient>
<clipPath id="clip0_900_1346">
<rect width="194.426" height="57.8419" fill="white" transform="translate(0 0.0791016)"/>
</clipPath>
</defs>
</svg>
