<svg width="18" height="18" viewBox="0 0 18 18" fill="none" xmlns="http://www.w3.org/2000/svg">
<path d="M2.3512 6.91935H15.6451M5.30541 2.48804V3.96514M12.6909 2.48804V3.96514M4.56685 9.13501H6.04396M8.25962 9.13501H9.73672M11.9524 9.13501H13.4295M4.56685 11.3507H6.04396M8.25962 11.3507H9.73672M11.9524 11.3507H13.4295M4.56685 13.5663H6.04396M8.25962 13.5663H9.73672M11.9524 13.5663H13.4295M4.71457 15.782H13.2818C14.109 15.782 14.5227 15.782 14.8386 15.621C15.1166 15.4794 15.3426 15.2534 15.4841 14.9755C15.6451 14.6595 15.6451 14.2459 15.6451 13.4186V6.32851C15.6451 5.50125 15.6451 5.08763 15.4841 4.77166C15.3426 4.49372 15.1166 4.26775 14.8386 4.12614C14.5227 3.96514 14.109 3.96514 13.2818 3.96514H4.71457C3.88731 3.96514 3.47368 3.96514 3.15771 4.12614C2.87977 4.26775 2.6538 4.49372 2.51219 4.77166C2.3512 5.08763 2.3512 5.50125 2.3512 6.32851V13.4186C2.3512 14.2459 2.3512 14.6595 2.51219 14.9755C2.6538 15.2534 2.87977 15.4794 3.15771 15.621C3.47368 15.782 3.8873 15.782 4.71457 15.782Z" stroke="#6E6E6E" stroke-width="1.26613" stroke-linecap="round"/>
</svg>
