<svg width="44" height="44" viewBox="0 0 44 44" fill="none" xmlns="http://www.w3.org/2000/svg">
<rect y="0.000244141" width="44" height="43.5632" rx="21.7816" fill="#FB903E"/>
<path d="M18.1442 22.0898C18.1599 21.8331 18.1757 21.576 18.2093 21.3164C18.2716 20.7008 18.4053 20.0826 18.5419 19.4813C18.625 19.1813 18.7151 18.8851 18.8096 18.5954C18.9304 18.3127 19.0487 18.0315 19.1666 17.7568C19.4336 17.2207 19.7321 16.7197 20.0884 16.3004C20.173 16.1923 20.2568 16.0876 20.3389 15.9825C20.4326 15.8888 20.5264 15.798 20.6168 15.7071C20.8076 15.5346 20.9731 15.3479 21.1636 15.2109C21.5433 14.9297 21.8792 14.6623 22.2212 14.4968C22.5508 14.3129 22.8335 14.1533 23.0884 14.0632C23.5879 13.8622 23.8714 13.7611 23.8714 13.7611C23.8714 13.7611 23.6296 13.953 23.2071 14.2643C22.9888 14.4068 22.7574 14.6316 22.4819 14.862C22.1948 15.0817 21.9348 15.3966 21.6258 15.6984C21.4712 15.8526 21.3512 16.0463 21.205 16.2247C21.1339 16.3155 21.0611 16.407 20.9859 16.5001C20.9251 16.6026 20.8622 16.7055 20.7984 16.8106C20.5256 17.2149 20.3217 17.6895 20.1092 18.1711C20.022 18.4231 19.9338 18.6787 19.8437 18.9368C19.7821 19.2052 19.7141 19.4766 19.6397 19.7469C19.528 20.3024 19.4185 20.8689 19.3713 21.4515C19.3384 21.6628 19.3226 21.876 19.3028 22.0906C23.9321 22.0913 27.515 22.0942 32.5285 22.0942C32.5454 21.8745 32.5549 21.6518 32.5549 21.4281C32.5549 17.2057 29.4779 13.7282 25.5185 13.2675C25.7741 13.0284 25.936 12.6892 25.936 12.312C25.9374 11.5869 25.3501 11.0002 24.6264 11.0002C23.9021 11.0002 23.314 11.5869 23.314 12.312C23.314 12.69 23.4751 13.0283 23.7314 13.2675C19.7723 13.7282 16.6962 17.2057 16.6962 21.4281C16.6962 21.6511 16.7042 21.8708 16.7207 22.0899C17.2096 22.0898 17.6816 22.0898 18.1442 22.0898Z" fill="#FFF0F0"/>
<path d="M34 22.5782H15.2529V24.2321H34V22.5782Z" fill="#FFF0F0"/>
<path d="M26.3037 25.4062C25.3508 25.8691 22.0285 27.0673 22.0285 27.0673L18.1013 26.8213C18.1013 26.8213 20.3477 26.1965 21.2185 26.0009C22.0908 25.8061 21.7114 24.8225 21.2291 24.8225C20.7468 24.8225 16.5438 24.9961 16.5438 24.9961L13.7529 26.0009L14.4915 30.676C14.4915 30.676 15.0661 29.6923 15.6393 29.6923C16.2146 29.6923 21.1976 29.8249 21.874 29.6923C22.5508 29.5583 26.6729 26.7384 27.1665 26.4096C27.658 26.0822 27.2602 24.9426 26.3037 25.4062Z" fill="#FFF0F0"/>
<path d="M10 26.5034V32.5635L14.2759 31.7629L13.2062 25.9393L10 26.5034Z" fill="#FFF0F0"/>
</svg>
