<svg width="90" height="91" viewBox="0 0 90 91" fill="none" xmlns="http://www.w3.org/2000/svg">
<path d="M0 0.5H24.5454C47.4567 0.5 58.9123 0.5 67.6632 4.95882C75.3608 8.88092 81.6191 15.1392 85.5412 22.8368C90 31.5877 90 43.0433 90 65.9546V90.5H65.4546C42.5433 90.5 31.0877 90.5 22.3368 86.0412C14.6392 82.1191 8.38092 75.8608 4.45882 68.1632C0 59.4123 0 47.9567 0 25.0454V0.5Z" fill="url(#paint0_linear_900_809)"/>
<g clip-path="url(#clip0_900_809)">
<path d="M40.4632 27.191V36.0704C40.4632 36.6395 40.0034 37.0981 39.4369 37.0981H39.1625C38.5959 37.0981 38.1348 36.6395 38.1348 36.0704V27.1504C38.1348 25.687 37.1503 25.25 36.2064 25.25C35.2626 25.25 34.2781 25.687 34.2781 27.1504V36.0704C34.2781 36.6395 33.817 37.0981 33.2504 37.0981H32.976C32.4095 37.0981 31.9496 36.6395 31.9496 36.0704V27.191C31.9496 24.5716 28.2149 24.6606 28.2149 27.2202C28.2149 30.2854 28.2149 35.6994 28.2149 35.6994C28.1971 40.4071 29.3226 41.6304 31.1798 43.0976C32.6775 44.279 33.9567 44.956 33.9567 47.8904V66.767H38.4561V47.8904C38.4561 44.956 39.7352 44.279 41.2329 43.0976C43.0913 41.6304 44.2156 40.4071 44.1978 35.6994C44.1978 35.6994 44.1978 30.2854 44.1978 27.2202C44.1979 24.6606 40.4632 24.5716 40.4632 27.191Z" fill="white"/>
<path d="M54.9432 28.0752C53.9879 30.7542 51.2377 37.0307 51.0637 42.5743C50.7943 51.1793 56.0674 49.9065 56.1614 55.544V66.8192H60.6391L60.6608 66.8751C60.6608 66.8751 60.6608 66.8523 60.6608 66.8192C60.6608 66.0659 60.6608 57.0938 60.6608 47.9413C60.6608 38.888 60.6608 29.6656 60.6608 28.0752C60.6608 24.8079 56.4306 23.9061 54.9432 28.0752Z" fill="white"/>
</g>
<defs>
<linearGradient id="paint0_linear_900_809" x1="6.3" y1="5" x2="84.6" y2="85.1" gradientUnits="userSpaceOnUse">
<stop stop-color="#CA91FE"/>
<stop offset="1" stop-color="#8339C7"/>
</linearGradient>
<clipPath id="clip0_900_809">
<rect width="41.625" height="41.625" fill="white" transform="translate(23.625 25.25)"/>
</clipPath>
</defs>
</svg>
