<svg width="24" height="24" viewBox="0 0 24 24" fill="none" xmlns="http://www.w3.org/2000/svg">
<g clip-path="url(#clip0_1130_497)">
<path d="M18.5807 0.0554199H5.41931C2.42631 0.0554199 0 2.48173 0 5.47473V18.5255C0 21.5185 2.42631 23.9448 5.41931 23.9448H18.5807C21.5737 23.9448 24 21.5185 24 18.5255V5.47473C24 2.48173 21.5737 0.0554199 18.5807 0.0554199Z" fill="#0866FF"/>
<path fill-rule="evenodd" clip-rule="evenodd" d="M13.4542 23.945H9.10148V15.6558H6.62695V11.9889H9.10148V10.4087C9.10148 6.32434 10.9499 4.43115 14.9598 4.43115C15.72 4.43115 17.0318 4.58026 17.5684 4.72932V8.05346C17.2852 8.02365 16.7933 8.00879 16.182 8.00879C14.2144 8.00879 13.4542 8.75411 13.4542 10.692V11.9889H17.3738L16.7004 15.6558H13.4542V23.945Z" fill="white"/>
</g>
<defs>
<clipPath id="clip0_1130_497">
<rect width="24" height="23.8894" fill="white" transform="translate(0 0.0554199)"/>
</clipPath>
</defs>
</svg>
