<svg width="94" height="17" viewBox="0 0 94 17" fill="none" xmlns="http://www.w3.org/2000/svg">
<g clip-path="url(#clip0_900_1534)">
<path d="M8.21491 13.2664L4.40399 15.5622C4.23563 15.6693 4.05963 15.7152 3.87597 15.6999C3.69231 15.6846 3.53161 15.6234 3.39386 15.5163C3.25612 15.4091 3.14898 15.2754 3.07246 15.115C2.99593 14.9546 2.98063 14.7746 3.02654 14.575L4.03667 10.2361L0.661934 7.32047C0.508884 7.18273 0.413382 7.0257 0.375425 6.84939C0.337469 6.67308 0.348795 6.50105 0.409402 6.33331C0.47001 6.16557 0.561839 6.02782 0.684891 5.92007C0.807942 5.81233 0.976296 5.74346 1.18995 5.71346L5.64369 5.32318L7.36549 1.23677C7.44201 1.05311 7.56078 0.915365 7.72179 0.823535C7.8828 0.731706 8.04717 0.685791 8.21491 0.685791C8.38265 0.685791 8.54703 0.731706 8.70804 0.823535C8.86904 0.915365 8.98781 1.05311 9.06434 1.23677L10.7861 5.32318L15.2399 5.71346C15.4541 5.74407 15.6225 5.81294 15.7449 5.92007C15.8674 6.02721 15.9592 6.16495 16.0204 6.33331C16.0816 6.50166 16.0933 6.67399 16.0553 6.85031C16.0174 7.02662 15.9216 7.18334 15.7679 7.32047L12.3932 10.2361L13.4033 14.575C13.4492 14.774 13.4339 14.954 13.3574 15.115C13.2808 15.276 13.1737 15.4097 13.036 15.5163C12.8982 15.6228 12.7375 15.684 12.5539 15.6999C12.3702 15.7158 12.1942 15.6699 12.0258 15.5622L8.21491 13.2664Z" fill="#FFDA71"/>
</g>
<g clip-path="url(#clip1_900_1534)">
<path d="M27.6071 13.2664L23.7962 15.5622C23.6278 15.6693 23.4518 15.7152 23.2682 15.6999C23.0845 15.6846 22.9238 15.6234 22.7861 15.5163C22.6483 15.4091 22.5412 15.2754 22.4647 15.115C22.3881 14.9546 22.3728 14.7746 22.4188 14.575L23.4289 10.2361L20.0541 7.32047C19.9011 7.18273 19.8056 7.0257 19.7676 6.84939C19.7297 6.67308 19.741 6.50105 19.8016 6.33331C19.8622 6.16557 19.9541 6.02782 20.0771 5.92007C20.2002 5.81233 20.3685 5.74346 20.5822 5.71346L25.0359 5.32318L26.7577 1.23677C26.8342 1.05311 26.953 0.915365 27.114 0.823535C27.275 0.731706 27.4394 0.685791 27.6071 0.685791C27.7749 0.685791 27.9392 0.731706 28.1002 0.823535C28.2613 0.915365 28.38 1.05311 28.4565 1.23677L30.1784 5.32318L34.6321 5.71346C34.8464 5.74407 35.0147 5.81294 35.1371 5.92007C35.2596 6.02721 35.3514 6.16495 35.4126 6.33331C35.4739 6.50166 35.4855 6.67399 35.4475 6.85031C35.4096 7.02662 35.3138 7.18334 35.1601 7.32047L31.7854 10.2361L32.7955 14.575C32.8414 14.774 32.8261 14.954 32.7496 15.115C32.6731 15.276 32.5659 15.4097 32.4282 15.5163C32.2904 15.6228 32.1297 15.684 31.9461 15.6999C31.7624 15.7158 31.5864 15.6699 31.418 15.5622L27.6071 13.2664Z" fill="#FFDA71"/>
</g>
<g clip-path="url(#clip2_900_1534)">
<path d="M47.0008 13.2664L43.1899 15.5622C43.0215 15.6693 42.8455 15.7152 42.6619 15.6999C42.4782 15.6846 42.3175 15.6234 42.1798 15.5163C42.042 15.4091 41.9349 15.2754 41.8584 15.115C41.7818 14.9546 41.7665 14.7746 41.8124 14.575L42.8226 10.2361L39.4478 7.32047C39.2948 7.18273 39.1993 7.0257 39.1613 6.84939C39.1234 6.67308 39.1347 6.50105 39.1953 6.33331C39.2559 6.16557 39.3477 6.02782 39.4708 5.92007C39.5938 5.81233 39.7622 5.74346 39.9759 5.71346L44.4296 5.32318L46.1514 1.23677C46.2279 1.05311 46.3467 0.915365 46.5077 0.823535C46.6687 0.731706 46.8331 0.685791 47.0008 0.685791C47.1686 0.685791 47.3329 0.731706 47.4939 0.823535C47.6549 0.915365 47.7737 1.05311 47.8502 1.23677L49.572 5.32318L54.0258 5.71346C54.24 5.74407 54.4084 5.81294 54.5308 5.92007C54.6533 6.02721 54.7451 6.16495 54.8063 6.33331C54.8675 6.50166 54.8792 6.67399 54.8412 6.85031C54.8033 7.02662 54.7075 7.18334 54.5538 7.32047L51.1791 10.2361L52.1892 14.575C52.2351 14.774 52.2198 14.954 52.1433 15.115C52.0667 15.276 51.9596 15.4097 51.8219 15.5163C51.6841 15.6228 51.5234 15.684 51.3398 15.6999C51.1561 15.7158 50.9801 15.6699 50.8117 15.5622L47.0008 13.2664Z" fill="#FFDA71"/>
</g>
<g clip-path="url(#clip3_900_1534)">
<path d="M66.3925 13.2664L62.5816 15.5622C62.4133 15.6693 62.2373 15.7152 62.0536 15.6999C61.8699 15.6846 61.7092 15.6234 61.5715 15.5163C61.4337 15.4091 61.3266 15.2754 61.2501 15.115C61.1736 14.9546 61.1583 14.7746 61.2042 14.575L62.2143 10.2361L58.8396 7.32047C58.6865 7.18273 58.591 7.0257 58.5531 6.84939C58.5151 6.67308 58.5264 6.50105 58.587 6.33331C58.6476 6.16557 58.7395 6.02782 58.8625 5.92007C58.9856 5.81233 59.1539 5.74346 59.3676 5.71346L63.8213 5.32318L65.5431 1.23677C65.6196 1.05311 65.7384 0.915365 65.8994 0.823535C66.0604 0.731706 66.2248 0.685791 66.3925 0.685791C66.5603 0.685791 66.7247 0.731706 66.8857 0.823535C67.0467 0.915365 67.1654 1.05311 67.242 1.23677L68.9638 5.32318L73.4175 5.71346C73.6318 5.74407 73.8001 5.81294 73.9226 5.92007C74.045 6.02721 74.1368 6.16495 74.198 6.33331C74.2593 6.50166 74.2709 6.67399 74.2329 6.85031C74.195 7.02662 74.0992 7.18334 73.9455 7.32047L70.5708 10.2361L71.5809 14.575C71.6268 14.774 71.6115 14.954 71.535 15.115C71.4585 15.276 71.3513 15.4097 71.2136 15.5163C71.0758 15.6228 70.9151 15.684 70.7315 15.6999C70.5478 15.7158 70.3718 15.6699 70.2035 15.5622L66.3925 13.2664Z" fill="#FFDA71"/>
</g>
<g clip-path="url(#clip4_900_1534)">
<path d="M85.7857 13.2664L81.9748 15.5622C81.8064 15.6693 81.6304 15.7152 81.4468 15.6999C81.2631 15.6846 81.1024 15.6234 80.9647 15.5163C80.8269 15.4091 80.7198 15.2754 80.6433 15.115C80.5668 14.9546 80.5514 14.7746 80.5974 14.575L81.6075 10.2361L78.2327 7.32047C78.0797 7.18273 77.9842 7.0257 77.9462 6.84939C77.9083 6.67308 77.9196 6.50105 77.9802 6.33331C78.0408 6.16557 78.1327 6.02782 78.2557 5.92007C78.3788 5.81233 78.5471 5.74346 78.7608 5.71346L83.2145 5.32318L84.9363 1.23677C85.0128 1.05311 85.1316 0.915365 85.2926 0.823535C85.4536 0.731706 85.618 0.685791 85.7857 0.685791C85.9535 0.685791 86.1178 0.731706 86.2789 0.823535C86.4399 0.915365 86.5586 1.05311 86.6352 1.23677L88.357 5.32318L92.8107 5.71346C93.025 5.74407 93.1933 5.81294 93.3158 5.92007C93.4382 6.02721 93.53 6.16495 93.5912 6.33331C93.6525 6.50166 93.6641 6.67399 93.6261 6.85031C93.5882 7.02662 93.4924 7.18334 93.3387 7.32047L89.964 10.2361L90.9741 14.575C91.02 14.774 91.0047 14.954 90.9282 15.115C90.8517 15.276 90.7445 15.4097 90.6068 15.5163C90.469 15.6228 90.3083 15.684 90.1247 15.6999C89.941 15.7158 89.765 15.6699 89.5967 15.5622L85.7857 13.2664Z" fill="#FFDA71"/>
</g>
<defs>
<clipPath id="clip0_900_1534">
<rect width="15.5142" height="15.5142" fill="white" transform="translate(0.457504 0.596924)"/>
</clipPath>
<clipPath id="clip1_900_1534">
<rect width="15.5142" height="15.5142" fill="white" transform="translate(19.8502 0.596924)"/>
</clipPath>
<clipPath id="clip2_900_1534">
<rect width="15.5142" height="15.5142" fill="white" transform="translate(39.2429 0.596924)"/>
</clipPath>
<clipPath id="clip3_900_1534">
<rect width="15.5142" height="15.5142" fill="white" transform="translate(58.6356 0.596924)"/>
</clipPath>
<clipPath id="clip4_900_1534">
<rect width="15.5142" height="15.5142" fill="white" transform="translate(78.0283 0.596924)"/>
</clipPath>
</defs>
</svg>
