<svg width="80" height="80" viewBox="0 0 80 80" fill="none" xmlns="http://www.w3.org/2000/svg">
<rect width="80" height="80" rx="16" fill="url(#paint0_linear_900_933)"/>
<path d="M36.7341 45.3658C35.4169 43.9278 38.1476 34.4539 22.115 27.989C19.4783 28.4676 16.5143 41.7915 32.093 45.8675C36.75 48.1954 36.0164 52.076 36.0164 54.233H39.012C39.012 54.233 37.7864 47.3909 43.26 44.8836C46.9844 43.1783 57.27 42.6314 59.9995 27.2627C54.7956 24.2537 36.3142 30.1192 36.7341 45.3658ZM32.956 42.773C32.6386 42.9928 32.2028 42.9134 31.9831 42.596C30.4584 40.3877 26.2422 35.2926 24.3781 33.4334C24.1047 33.1612 24.1047 32.7181 24.3781 32.4458C24.6503 32.1724 25.0934 32.1724 25.3657 32.4458C27.3457 34.4295 31.5132 39.4661 33.133 41.8001C33.3527 42.1175 33.2734 42.5533 32.956 42.773ZM52.497 31.4339C47.3993 34.6553 43.2331 40.0155 41.3544 42.9268C41.1457 43.2503 40.7123 43.343 40.3889 43.1343C40.0654 42.9243 39.9726 42.4922 40.1825 42.1675C42.1467 39.1389 46.3654 33.6701 51.7487 30.2534C52.0747 30.0459 52.5056 30.1436 52.7131 30.4695C52.9194 30.7955 52.8229 31.2264 52.497 31.4339Z" fill="white"/>
<defs>
<linearGradient id="paint0_linear_900_933" x1="5" y1="5.5" x2="80" y2="80.5" gradientUnits="userSpaceOnUse">
<stop stop-color="#FF8F8F"/>
<stop offset="1" stop-color="#C53131"/>
</linearGradient>
</defs>
</svg>
