<svg width="195" height="58" viewBox="0 0 195 58" fill="none" xmlns="http://www.w3.org/2000/svg">
<g clip-path="url(#clip0_900_1357)">
<path d="M187.701 57.8105H7.62939C3.59578 57.8105 0.426514 54.6413 0.426514 50.6077V7.39038C0.426514 3.35677 3.59578 0.1875 7.62939 0.1875H187.701C191.735 0.1875 194.904 3.35677 194.904 7.39038V50.6077C194.904 54.6413 191.735 57.8105 187.701 57.8105Z" fill="black"/>
<path d="M68.7097 14.8813C68.7097 16.0338 68.4216 17.0422 67.7013 17.7625C66.837 18.6268 65.8286 19.059 64.5321 19.059C63.2355 19.059 62.2271 18.6268 61.3628 17.7625C60.4985 16.8981 60.0663 15.8897 60.0663 14.5932C60.0663 13.2967 60.4985 12.2883 61.3628 11.424C62.2271 10.5596 63.2355 10.1274 64.5321 10.1274C65.1083 10.1274 65.6845 10.2715 66.2608 10.5596C66.837 10.8477 67.2692 11.1358 67.5573 11.568L66.837 12.2883C66.2608 11.568 65.5405 11.2799 64.5321 11.2799C63.6677 11.2799 62.8034 11.568 62.2271 12.2883C61.5069 12.8645 61.2187 13.7289 61.2187 14.7373C61.2187 15.7457 61.5069 16.61 62.2271 17.1863C62.9474 17.7625 63.6677 18.1947 64.5321 18.1947C65.5405 18.1947 66.2608 17.9066 66.981 17.1863C67.4132 16.7541 67.7013 16.1779 67.7013 15.4576H64.5321V14.3051H68.7097V14.8813ZM75.3364 11.2799H71.4468V14.017H75.0483V15.0254H71.4468V17.7625H75.3364V18.915H70.2944V10.2715H75.3364V11.2799ZM80.0903 18.915H78.9378V11.2799H76.4888V10.2715H82.5393V11.2799H80.0903V18.915ZM86.7169 18.915V10.2715H87.8694V18.915H86.7169ZM92.7674 18.915H91.6149V11.2799H89.1659V10.2715H95.0723V11.2799H92.6233V18.915H92.7674ZM106.453 17.7625C105.588 18.6268 104.58 19.059 103.284 19.059C101.987 19.059 100.979 18.6268 100.114 17.7625C99.2499 16.8981 98.8178 15.8897 98.8178 14.5932C98.8178 13.2967 99.2499 12.2883 100.114 11.424C100.979 10.5596 101.987 10.1274 103.284 10.1274C104.58 10.1274 105.588 10.5596 106.453 11.424C107.317 12.2883 107.749 13.2967 107.749 14.5932C107.749 15.8897 107.317 16.8981 106.453 17.7625ZM100.979 17.0422C101.555 17.6184 102.419 18.0506 103.284 18.0506C104.148 18.0506 105.012 17.7625 105.588 17.0422C106.165 16.466 106.597 15.6016 106.597 14.5932C106.597 13.5848 106.309 12.7205 105.588 12.1442C105.012 11.568 104.148 11.1358 103.284 11.1358C102.419 11.1358 101.555 11.424 100.979 12.1442C100.402 12.7205 99.9702 13.5848 99.9702 14.5932C99.9702 15.6016 100.258 16.466 100.979 17.0422ZM109.334 18.915V10.2715H110.63L114.808 17.0422V10.2715H115.961V18.915H114.808L110.342 11.8561V18.915H109.334Z" fill="white" stroke="white" stroke-width="0.288115" stroke-miterlimit="10"/>
<path d="M98.5297 31.593C95.0723 31.593 92.3352 34.186 92.3352 37.7874C92.3352 41.2448 95.0723 43.9819 98.5297 43.9819C101.987 43.9819 104.724 41.3889 104.724 37.7874C104.724 34.042 101.987 31.593 98.5297 31.593ZM98.5297 41.3889C96.657 41.3889 95.0723 39.8043 95.0723 37.6434C95.0723 35.4825 96.657 33.8979 98.5297 33.8979C100.402 33.8979 101.987 35.3385 101.987 37.6434C101.987 39.8043 100.402 41.3889 98.5297 41.3889ZM85.1324 31.593C81.675 31.593 78.9379 34.186 78.9379 37.7874C78.9379 41.2448 81.675 43.9819 85.1324 43.9819C88.5897 43.9819 91.3268 41.3889 91.3268 37.7874C91.3268 34.042 88.5897 31.593 85.1324 31.593ZM85.1324 41.3889C83.2596 41.3889 81.675 39.8043 81.675 37.6434C81.675 35.4825 83.2596 33.8979 85.1324 33.8979C87.0051 33.8979 88.5897 35.3385 88.5897 37.6434C88.5897 39.8043 87.0051 41.3889 85.1324 41.3889ZM69.142 33.4657V36.0588H75.3364C75.1924 37.4993 74.6161 38.6518 73.8959 39.3721C73.0315 40.2364 71.5909 41.2448 69.142 41.2448C65.2524 41.2448 62.3713 38.2196 62.3713 34.3301C62.3713 30.4405 65.3965 27.4153 69.142 27.4153C71.1588 27.4153 72.7434 28.2796 73.8959 29.2881L75.7686 27.4153C74.184 25.9747 72.1672 24.8223 69.286 24.8223C64.0999 24.8223 59.6342 29.144 59.6342 34.3301C59.6342 39.5161 64.0999 43.8379 69.286 43.8379C72.1672 43.8379 74.184 42.9735 75.9127 41.1008C77.6414 39.3721 78.2176 36.9231 78.2176 35.0504C78.2176 34.4741 78.2176 33.8979 78.0735 33.4657H69.142ZM134.544 35.4825C133.968 34.042 132.527 31.593 129.358 31.593C126.189 31.593 123.596 34.042 123.596 37.7874C123.596 41.2448 126.189 43.9819 129.646 43.9819C132.383 43.9819 134.112 42.2532 134.688 41.2448L132.671 39.8043C131.951 40.8127 131.087 41.5329 129.646 41.5329C128.206 41.5329 127.341 40.9567 126.621 39.6602L134.832 36.2028L134.544 35.4825ZM126.189 37.4993C126.189 35.1944 128.062 33.8979 129.358 33.8979C130.366 33.8979 131.375 34.4741 131.663 35.1944L126.189 37.4993ZM119.418 43.4057H122.155V25.3985H119.418V43.4057ZM115.096 32.8895C114.376 32.1692 113.224 31.4489 111.783 31.4489C108.758 31.4489 105.877 34.186 105.877 37.6434C105.877 41.1008 108.614 43.6938 111.783 43.6938C113.224 43.6938 114.376 42.9735 114.952 42.2532H115.096V43.1176C115.096 45.4225 113.8 46.719 111.783 46.719C110.198 46.719 109.046 45.5666 108.758 44.5582L106.453 45.5666C107.173 47.1512 108.902 49.168 111.927 49.168C115.096 49.168 117.689 47.2952 117.689 42.8295V31.8811H115.096V32.8895ZM111.927 41.3889C110.054 41.3889 108.47 39.8043 108.47 37.6434C108.47 35.4825 110.054 33.8979 111.927 33.8979C113.8 33.8979 115.24 35.4825 115.24 37.6434C115.24 39.8043 113.8 41.3889 111.927 41.3889ZM147.077 25.3985H140.595V43.4057H143.332V36.635H147.077C150.102 36.635 152.983 34.4741 152.983 31.0167C152.983 27.5594 150.102 25.3985 147.077 25.3985ZM147.221 34.042H143.332V27.8475H147.221C149.238 27.8475 150.39 29.5762 150.39 30.8727C150.246 32.4573 149.094 34.042 147.221 34.042ZM163.788 31.4489C161.771 31.4489 159.754 32.3133 159.034 34.186L161.483 35.1944C162.059 34.186 162.923 33.8979 163.932 33.8979C165.372 33.8979 166.669 34.7622 166.813 36.2028V36.3469C166.381 36.0588 165.228 35.6266 164.076 35.6266C161.483 35.6266 158.89 37.0672 158.89 39.6602C158.89 42.1092 161.051 43.6938 163.356 43.6938C165.228 43.6938 166.093 42.8295 166.813 41.9651H166.957V43.4057H169.55V36.4909C169.262 33.3217 166.813 31.4489 163.788 31.4489ZM163.5 41.3889C162.635 41.3889 161.339 40.9567 161.339 39.8043C161.339 38.3637 162.923 37.9315 164.22 37.9315C165.372 37.9315 165.949 38.2196 166.669 38.5077C166.381 40.2364 164.94 41.3889 163.5 41.3889ZM178.626 31.8811L175.601 39.6602H175.456L172.287 31.8811H169.406L174.16 42.8295L171.423 48.8799H174.16L181.507 31.8811H178.626ZM154.424 43.4057H157.161V25.3985H154.424V43.4057Z" fill="white"/>
<path d="M19.2991 14.9819C18.9719 15.3092 18.8628 15.8546 18.8628 16.5091V40.6169C18.8628 41.2714 19.081 41.8168 19.4082 42.1441L19.5173 42.2532L33.0438 28.7266V28.5085L19.2991 14.9819Z" fill="url(#paint0_linear_900_1357)"/>
<path d="M37.4073 33.3074L32.9348 28.8349V28.5076L37.4073 24.0352L37.5164 24.1442L42.8616 27.1986C44.3887 28.0713 44.3887 29.4894 42.8616 30.3621L37.4073 33.3074Z" fill="url(#paint1_linear_900_1357)"/>
<path d="M37.5164 33.1988L32.9348 28.6172L19.2992 42.2528C19.8446 42.7982 20.6082 42.7982 21.59 42.3619L37.5164 33.1988Z" fill="url(#paint2_linear_900_1357)"/>
<path d="M37.5163 24.0347L21.5899 14.9807C20.6081 14.4352 19.8445 14.5443 19.2991 15.0897L32.9347 28.6163L37.5163 24.0347Z" fill="url(#paint3_linear_900_1357)"/>
<path opacity="0.2" d="M37.4073 33.0894L21.59 42.0343C20.7173 42.5797 19.9537 42.4707 19.4083 42.0343L19.2992 42.1434L19.4083 42.2525C19.9537 42.6888 20.7173 42.7979 21.59 42.2525L37.4073 33.0894Z" fill="black"/>
<path opacity="0.12" d="M19.2991 42.0346C18.9719 41.7074 18.8628 41.162 18.8628 40.5075V40.6165C18.8628 41.271 19.081 41.8165 19.4082 42.1437V42.0346H19.2991ZM42.8615 30.0353L37.4072 33.0897L37.5163 33.1988L42.8615 30.1444C43.6251 29.708 43.9523 29.1626 43.9523 28.6172C43.9523 29.1626 43.516 29.599 42.8615 30.0353Z" fill="black"/>
<path opacity="0.25" d="M21.5899 15.0901L42.8615 27.1986C43.516 27.6349 43.9523 28.0713 43.9523 28.6167C43.9523 28.0713 43.6251 27.5258 42.8615 27.0895L21.5899 14.9811C20.0627 14.1084 18.8628 14.7629 18.8628 16.5082V16.6173C18.8628 14.9811 20.0627 14.2175 21.5899 15.0901Z" fill="white"/>
</g>
<defs>
<linearGradient id="paint0_linear_900_1357" x1="31.7348" y1="16.3019" x2="13.4271" y2="34.6085" gradientUnits="userSpaceOnUse">
<stop stop-color="#00A0FF"/>
<stop offset="0.007" stop-color="#00A1FF"/>
<stop offset="0.26" stop-color="#00BEFF"/>
<stop offset="0.512" stop-color="#00D2FF"/>
<stop offset="0.76" stop-color="#00DFFF"/>
<stop offset="1" stop-color="#00E3FF"/>
</linearGradient>
<linearGradient id="paint1_linear_900_1357" x1="44.8622" y1="28.6178" x2="18.4669" y2="28.6178" gradientUnits="userSpaceOnUse">
<stop stop-color="#FFE000"/>
<stop offset="0.409" stop-color="#FFBD00"/>
<stop offset="0.775" stop-color="#FFA500"/>
<stop offset="1" stop-color="#FF9C00"/>
</linearGradient>
<linearGradient id="paint2_linear_900_1357" x1="35.0369" y1="31.1218" x2="10.2113" y2="55.9473" gradientUnits="userSpaceOnUse">
<stop stop-color="#FF3A44"/>
<stop offset="1" stop-color="#C31162"/>
</linearGradient>
<linearGradient id="paint3_linear_900_1357" x1="15.9142" y1="6.99127" x2="27.0005" y2="18.0776" gradientUnits="userSpaceOnUse">
<stop stop-color="#32A071"/>
<stop offset="0.069" stop-color="#2DA771"/>
<stop offset="0.476" stop-color="#15CF74"/>
<stop offset="0.801" stop-color="#06E775"/>
<stop offset="1" stop-color="#00F076"/>
</linearGradient>
<clipPath id="clip0_900_1357">
<rect width="194.478" height="57.8571" fill="white" transform="translate(0.426514 0.0712891)"/>
</clipPath>
</defs>
</svg>
