<svg width="24" height="24" viewBox="0 0 24 24" fill="none" xmlns="http://www.w3.org/2000/svg">
<path fill-rule="evenodd" clip-rule="evenodd" d="M1.52752 17.3782C0.709313 15.7636 0.240234 13.9418 0.240234 12C0.240234 10.0582 0.709313 8.23636 1.52752 6.6218C3.50203 2.69456 7.54931 0 12.2402 0C15.4802 0 18.1857 1.18908 20.2693 3.13092L16.8329 6.56728C15.5784 5.38908 14.0075 4.77816 12.2402 4.77816C9.12023 4.77816 6.46931 6.88364 5.52023 9.72C5.28023 10.44 5.13839 11.2036 5.13839 12C5.13839 12.7964 5.28023 13.56 5.52023 14.28L5.50603 14.2909H5.52023C6.46931 17.1273 9.12023 19.2327 12.2402 19.2327C13.8547 19.2327 15.2184 18.7963 16.2875 18.0763C17.5639 17.2254 18.4148 15.96 18.6984 14.4654H12.2402V9.81816H23.542C23.6838 10.6036 23.7602 11.4218 23.7602 12.2727C23.7602 15.9272 22.4511 19.0036 20.182 21.0982C18.1966 22.9309 15.4802 24 12.2402 24C7.54931 24 3.50203 21.3054 1.52752 17.3891V17.3782Z" fill="white"/>
</svg>
