<svg width="134" height="27" viewBox="0 0 134 27" fill="none" xmlns="http://www.w3.org/2000/svg">
<path d="M16.76 1.744C16.5467 2.02133 16.3867 2.75733 16.28 3.952C16.1947 5.14667 16.152 6.52267 16.152 8.08V19.6C16.152 21.1573 16.1947 22.5333 16.28 23.728C16.3867 24.9227 16.5467 25.6587 16.76 25.936V26H12.28V25.936C12.4933 25.6587 12.6427 24.9227 12.728 23.728C12.8347 22.5333 12.888 21.1573 12.888 19.6V13.424H4.472V19.6C4.472 21.1573 4.51467 22.5333 4.6 23.728C4.70667 24.9227 4.86667 25.6587 5.08 25.936V26H0.6V25.936C0.813333 25.6587 0.962667 24.9227 1.048 23.728C1.15467 22.5333 1.208 21.1573 1.208 19.6V8.08C1.208 6.52267 1.15467 5.14667 1.048 3.952C0.962667 2.75733 0.813333 2.02133 0.6 1.744V1.68H5.08V1.744C4.86667 2.02133 4.70667 2.75733 4.6 3.952C4.51467 5.14667 4.472 6.52267 4.472 8.08V12.912H12.888V8.08C12.888 6.52267 12.8347 5.14667 12.728 3.952C12.6427 2.75733 12.4933 2.02133 12.28 1.744V1.68H16.76V1.744ZM27.143 26.512C24.7323 26.512 22.8443 25.7227 21.479 24.144C20.1137 22.544 19.431 20.2933 19.431 17.392C19.431 14.4907 20.1137 12.2507 21.479 10.672C22.8443 9.09333 24.7323 8.304 27.143 8.304C29.5537 8.304 31.431 9.09333 32.775 10.672C34.119 12.2507 34.791 14.4907 34.791 17.392C34.791 20.2933 34.119 22.544 32.775 24.144C31.431 25.7227 29.5537 26.512 27.143 26.512ZM27.111 26C28.5617 26 29.6603 25.2213 30.407 23.664C31.1537 22.0853 31.527 19.9947 31.527 17.392C31.527 14.7893 31.1537 12.7093 30.407 11.152C29.6603 9.59467 28.5617 8.816 27.111 8.816C25.639 8.816 24.5297 9.59467 23.783 11.152C23.0577 12.688 22.695 14.768 22.695 17.392C22.695 20.016 23.0577 22.1067 23.783 23.664C24.5297 25.2213 25.639 26 27.111 26ZM37.0918 25.936C37.3051 25.6587 37.4544 24.9227 37.5398 23.728C37.6464 22.5333 37.6998 21.1573 37.6998 19.6V15.024C37.6998 13.4667 37.6464 12.0907 37.5398 10.896C37.4544 9.70133 37.3051 8.96533 37.0918 8.688V8.624H40.9638V13.936H41.0918C41.5824 12.0587 42.3931 10.6507 43.5238 9.712C44.6758 8.752 45.9344 8.272 47.2998 8.272C48.1958 8.272 49.0384 8.48533 49.8278 8.912C50.6171 9.31733 51.2464 9.904 51.7158 10.672C52.2064 11.4187 52.4518 12.2933 52.4518 13.296V13.936H52.5158C52.8571 12.784 53.3798 11.7813 54.0838 10.928C54.7878 10.0747 55.5771 9.424 56.4518 8.976C57.3264 8.528 58.2011 8.304 59.0758 8.304C60.4624 8.304 61.6251 8.752 62.5638 9.648C63.5024 10.5227 63.9718 11.8133 63.9718 13.52V19.6C63.9718 21.1573 64.0144 22.5333 64.0998 23.728C64.2064 24.9227 64.3664 25.6587 64.5798 25.936V26H60.0998V25.936C60.3131 25.6587 60.4624 24.9227 60.5478 23.728C60.6544 22.5333 60.7078 21.1573 60.7078 19.6V13.52C60.7078 12.304 60.4198 11.376 59.8438 10.736C59.2891 10.0747 58.5744 9.744 57.6998 9.744C56.8678 9.744 56.0464 10.0427 55.2358 10.64C54.4251 11.216 53.7531 12.0587 53.2198 13.168C52.7078 14.2773 52.4518 15.5893 52.4518 17.104V19.6C52.4518 21.1573 52.4944 22.5333 52.5798 23.728C52.6864 24.9227 52.8464 25.6587 53.0598 25.936V26H48.5798V25.936C48.7931 25.6587 48.9424 24.9227 49.0278 23.728C49.1344 22.5333 49.1878 21.1573 49.1878 19.6V13.52C49.1878 12.1333 48.8998 11.0773 48.3238 10.352C47.7691 9.60533 47.0544 9.232 46.1798 9.232C45.3691 9.232 44.5584 9.552 43.7478 10.192C42.9371 10.832 42.2651 11.7493 41.7318 12.944C41.2198 14.1387 40.9638 15.5253 40.9638 17.104V19.6C40.9638 21.1573 41.0064 22.5333 41.0918 23.728C41.1984 24.9227 41.3584 25.6587 41.5718 25.936V26H37.0918V25.936ZM75.1938 26.48C73.7004 26.48 72.3031 26.16 71.0018 25.52C69.7218 24.88 68.6764 23.8667 67.8658 22.48C67.0551 21.072 66.6497 19.2907 66.6497 17.136C66.6497 15.3227 67.0338 13.7547 67.8018 12.432C68.5911 11.088 69.6364 10.0747 70.9378 9.392C72.2391 8.688 73.6684 8.336 75.2258 8.336C77.3378 8.336 78.8738 8.73067 79.8338 9.52C80.8151 10.3093 81.3058 11.344 81.3058 12.624C81.3058 13.4347 81.0711 14.1813 80.6018 14.864C80.1538 15.5253 79.5884 16.1013 78.9058 16.592C78.2444 17.0827 77.3804 17.6587 76.3138 18.32C74.9698 19.1307 73.9778 19.824 73.3378 20.4C72.6978 20.976 72.3778 21.6373 72.3778 22.384H71.8658C71.8658 21.6587 72.0684 21.0507 72.4738 20.56C72.9004 20.0693 73.5724 19.472 74.4898 18.768C75.2578 18.192 75.8764 17.68 76.3458 17.232C76.8151 16.784 77.2098 16.2187 77.5298 15.536C77.8711 14.8533 78.0418 14.064 78.0418 13.168C78.0418 12.5707 77.9138 11.9413 77.6578 11.28C77.4231 10.6187 77.0391 10.0533 76.5058 9.584C75.9724 9.09333 75.3111 8.848 74.5218 8.848C73.0498 8.848 71.9191 9.57333 71.1298 11.024C70.3404 12.4747 69.9458 14.512 69.9458 17.136C69.9458 20.2293 70.5004 22.48 71.6098 23.888C72.7191 25.296 74.1058 26 75.7698 26C76.6658 26 77.5511 25.8187 78.4258 25.456C79.3004 25.072 80.0364 24.5813 80.6338 23.984L80.9538 24.624C80.2498 25.2 79.3858 25.6587 78.3618 26C77.3591 26.32 76.3031 26.48 75.1938 26.48Z" fill="#2B2B2B"/>
<path d="M83.5375 26V25.936C83.7508 25.6587 83.9002 24.9227 83.9855 23.728C84.0922 22.5333 84.1455 21.1573 84.1455 19.6V8.08C84.1455 6.52267 84.0922 5.14667 83.9855 3.952C83.9002 2.75733 83.7508 2.02133 83.5375 1.744V1.68H93.5855C94.8442 1.68 95.8575 1.82933 96.6255 2.128C97.4148 2.40533 97.9695 2.74667 98.2895 3.152C98.6308 3.55733 98.8015 3.96266 98.8015 4.368C98.8015 5.09333 98.5988 5.65867 98.1935 6.064C97.8095 6.448 97.3402 6.71467 96.7855 6.864C96.2308 6.992 95.5268 7.09867 94.6735 7.184C93.6708 7.29067 92.9348 7.42933 92.4655 7.6C91.9962 7.77067 91.7615 8.12267 91.7615 8.656C91.7615 9.12533 91.9748 9.50933 92.4015 9.808C92.8282 10.0853 93.5108 10.4267 94.4495 10.832C95.6868 11.3653 96.7215 11.8987 97.5535 12.432C98.3855 12.9653 99.1108 13.7547 99.7295 14.8C100.348 15.8453 100.658 17.1893 100.658 18.832C100.658 20.0267 100.348 21.1787 99.7295 22.288C99.1322 23.376 98.2255 24.272 97.0095 24.976C95.7935 25.6587 94.3215 26 92.5935 26H83.5375ZM91.9215 25.52C93.1375 25.52 94.1615 25.1893 94.9935 24.528C95.8255 23.8667 96.4335 23.024 96.8175 22C97.2015 20.976 97.3935 19.92 97.3935 18.832C97.3935 17.552 97.2015 16.4533 96.8175 15.536C96.4335 14.6187 95.9855 13.8827 95.4735 13.328C94.9615 12.7733 94.3108 12.176 93.5215 11.536C92.7962 10.96 92.2628 10.4693 91.9215 10.064C91.6015 9.65867 91.4415 9.18933 91.4415 8.656C91.4415 8.016 91.6015 7.568 91.9215 7.312C92.2415 7.056 92.7215 6.832 93.3615 6.64C93.8522 6.49067 94.2468 6.34133 94.5455 6.192C94.8442 6.04267 95.0895 5.79733 95.2815 5.456C95.4948 5.11467 95.6015 4.64533 95.6015 4.048C95.6015 3.36533 95.3562 2.88533 94.8655 2.608C94.3962 2.33067 93.7028 2.192 92.7855 2.192H87.3775L87.4095 25.52H91.9215ZM105.019 4.08C104.401 4.08 103.921 3.93066 103.579 3.632C103.238 3.312 103.067 2.93867 103.067 2.512C103.067 2.10667 103.238 1.75467 103.579 1.456C103.921 1.136 104.401 0.975998 105.019 0.975998C105.617 0.975998 106.086 1.136 106.427 1.456C106.769 1.75467 106.939 2.10667 106.939 2.512C106.939 2.93867 106.769 3.312 106.427 3.632C106.086 3.93066 105.617 4.08 105.019 4.08ZM102.779 25.936C102.993 25.6587 103.142 24.9227 103.227 23.728C103.334 22.5333 103.387 21.1573 103.387 19.6V15.024C103.387 13.4667 103.334 12.0907 103.227 10.896C103.142 9.70133 102.993 8.96533 102.779 8.688V8.624H106.651V19.6C106.651 21.1573 106.694 22.5333 106.779 23.728C106.886 24.9227 107.046 25.6587 107.259 25.936V26H102.779V25.936ZM118.484 9.136C117.225 9.136 116.18 9.41333 115.348 9.968C114.516 10.5013 114.1 11.6427 114.1 13.392V23.28C114.1 24.112 114.271 24.7307 114.612 25.136C114.975 25.52 115.561 25.712 116.372 25.712C116.735 25.712 117.119 25.68 117.524 25.616V26.128C116.713 26.384 115.924 26.512 115.156 26.512C113.876 26.512 112.831 26.1493 112.02 25.424C111.231 24.6987 110.836 23.6 110.836 22.128V9.104H110.004V8.624C111.028 7.77067 111.807 6.992 112.34 6.288C112.895 5.584 113.375 4.656 113.78 3.504H114.1V10.768C114.527 9.91467 115.124 9.34933 115.892 9.072C116.681 8.77333 117.545 8.624 118.484 8.624V9.136ZM127.194 26.48C125.7 26.48 124.303 26.16 123.002 25.52C121.722 24.88 120.676 23.8667 119.866 22.48C119.055 21.072 118.65 19.2907 118.65 17.136C118.65 15.3227 119.034 13.7547 119.802 12.432C120.591 11.088 121.636 10.0747 122.938 9.392C124.239 8.688 125.668 8.336 127.226 8.336C129.338 8.336 130.874 8.73067 131.834 9.52C132.815 10.3093 133.306 11.344 133.306 12.624C133.306 13.4347 133.071 14.1813 132.602 14.864C132.154 15.5253 131.588 16.1013 130.906 16.592C130.244 17.0827 129.38 17.6587 128.314 18.32C126.97 19.1307 125.978 19.824 125.338 20.4C124.698 20.976 124.378 21.6373 124.378 22.384H123.866C123.866 21.6587 124.068 21.0507 124.474 20.56C124.9 20.0693 125.572 19.472 126.49 18.768C127.258 18.192 127.876 17.68 128.346 17.232C128.815 16.784 129.21 16.2187 129.53 15.536C129.871 14.8533 130.042 14.064 130.042 13.168C130.042 12.5707 129.914 11.9413 129.658 11.28C129.423 10.6187 129.039 10.0533 128.506 9.584C127.972 9.09333 127.311 8.848 126.522 8.848C125.05 8.848 123.919 9.57333 123.13 11.024C122.34 12.4747 121.946 14.512 121.946 17.136C121.946 20.2293 122.5 22.48 123.61 23.888C124.719 25.296 126.106 26 127.77 26C128.666 26 129.551 25.8187 130.426 25.456C131.3 25.072 132.036 24.5813 132.634 23.984L132.954 24.624C132.25 25.2 131.386 25.6587 130.362 26C129.359 26.32 128.303 26.48 127.194 26.48Z" fill="#FF6B6B"/>
</svg>
