<svg width="34" height="34" viewBox="0 0 34 34" fill="none" xmlns="http://www.w3.org/2000/svg">
<g clip-path="url(#clip0_900_1398)">
<path d="M23.375 0H10.625C7.80707 0 5.10456 1.11942 3.11199 3.11199C1.11942 5.10456 0 7.80707 0 10.625L0 23.375C0 26.1929 1.11942 28.8954 3.11199 30.888C5.10456 32.8806 7.80707 34 10.625 34H23.375C26.1929 34 28.8954 32.8806 30.888 30.888C32.8806 28.8954 34 26.1929 34 23.375V10.625C34 7.80707 32.8806 5.10456 30.888 3.11199C28.8954 1.11942 26.1929 0 23.375 0ZM30.8125 23.375C30.8125 27.4762 27.4762 30.8125 23.375 30.8125H10.625C6.52375 30.8125 3.1875 27.4762 3.1875 23.375V10.625C3.1875 6.52375 6.52375 3.1875 10.625 3.1875H23.375C27.4762 3.1875 30.8125 6.52375 30.8125 10.625V23.375Z" fill="url(#paint0_linear_900_1398)"/>
<path d="M17 8.5C14.7457 8.5 12.5837 9.39553 10.9896 10.9896C9.39553 12.5837 8.5 14.7457 8.5 17C8.5 19.2543 9.39553 21.4163 10.9896 23.0104C12.5837 24.6045 14.7457 25.5 17 25.5C19.2543 25.5 21.4163 24.6045 23.0104 23.0104C24.6045 21.4163 25.5 19.2543 25.5 17C25.5 14.7457 24.6045 12.5837 23.0104 10.9896C21.4163 9.39553 19.2543 8.5 17 8.5ZM17 22.3125C15.5916 22.3108 14.2413 21.7506 13.2454 20.7546C12.2494 19.7587 11.6892 18.4084 11.6875 17C11.6875 14.0696 14.0718 11.6875 17 11.6875C19.9283 11.6875 22.3125 14.0696 22.3125 17C22.3125 19.9283 19.9283 22.3125 17 22.3125Z" fill="url(#paint1_linear_900_1398)"/>
<path d="M26.1375 8.99572C26.763 8.99572 27.2701 8.48863 27.2701 7.86309C27.2701 7.23756 26.763 6.73047 26.1375 6.73047C25.512 6.73047 25.0049 7.23756 25.0049 7.86309C25.0049 8.48863 25.512 8.99572 26.1375 8.99572Z" fill="url(#paint2_linear_900_1398)"/>
</g>
<defs>
<linearGradient id="paint0_linear_900_1398" x1="3.111" y1="30.889" x2="30.889" y2="3.111" gradientUnits="userSpaceOnUse">
<stop stop-color="#FFC107"/>
<stop offset="0.507" stop-color="#F44336"/>
<stop offset="0.99" stop-color="#9C27B0"/>
</linearGradient>
<linearGradient id="paint1_linear_900_1398" x1="10.9905" y1="23.0095" x2="23.0095" y2="10.9905" gradientUnits="userSpaceOnUse">
<stop stop-color="#FFC107"/>
<stop offset="0.507" stop-color="#F44336"/>
<stop offset="0.99" stop-color="#9C27B0"/>
</linearGradient>
<linearGradient id="paint2_linear_900_1398" x1="25.3364" y1="8.66422" x2="26.9386" y2="7.06197" gradientUnits="userSpaceOnUse">
<stop stop-color="#FFC107"/>
<stop offset="0.507" stop-color="#F44336"/>
<stop offset="0.99" stop-color="#9C27B0"/>
</linearGradient>
<clipPath id="clip0_900_1398">
<rect width="34" height="34" fill="white"/>
</clipPath>
</defs>
</svg>
