<svg width="34" height="34" viewBox="0 0 34 34" fill="none" xmlns="http://www.w3.org/2000/svg">
<g clip-path="url(#clip0_900_1385)">
<path d="M26.3685 0H7.63145C3.41672 0 0 3.41672 0 7.63145V26.3685C0 30.5833 3.41672 34 7.63145 34H26.3685C30.5833 34 34 30.5833 34 26.3685V7.63145C34 3.41672 30.5833 0 26.3685 0Z" fill="#0B86CA"/>
<path d="M9.42142 14.1315H12.9545V25.5316H9.42142V14.1315ZM11.2233 8.4668C11.6281 8.4668 12.0238 8.58669 12.3605 8.81135C12.6973 9.036 12.9599 9.35534 13.1153 9.7291C13.2708 10.1029 13.312 10.5143 13.2339 10.9114C13.1558 11.3086 12.9618 11.6738 12.6764 11.9608C12.391 12.2479 12.027 12.444 11.6302 12.5243C11.2335 12.6047 10.8219 12.5658 10.4472 12.4125C10.0726 12.2592 9.75174 11.9984 9.52517 11.663C9.29859 11.3276 9.17643 10.9325 9.17411 10.5278C9.17255 10.2577 9.22441 9.98993 9.3267 9.73995C9.42898 9.48997 9.57968 9.26268 9.77012 9.07115C9.96056 8.87961 10.187 8.72762 10.4364 8.6239C10.6858 8.52018 10.9532 8.46679 11.2233 8.4668Z" fill="white"/>
<path d="M15.216 14.1327H18.6195V15.6872C18.9602 15.1058 19.4524 14.6278 20.0435 14.3042C20.6347 13.9806 21.3026 13.8237 21.976 13.85C25.509 13.85 26.2274 16.2054 26.2274 19.2792V25.5327H22.6944V20.0211C22.6944 18.7021 22.6943 16.9945 20.8571 16.9945C19.0199 16.9945 18.7373 18.4312 18.7373 19.9151V25.5563H15.2042L15.216 14.1327Z" fill="white"/>
</g>
<defs>
<clipPath id="clip0_900_1385">
<rect width="34" height="34" fill="white"/>
</clipPath>
</defs>
</svg>
