<svg width="90" height="91" viewBox="0 0 90 91" fill="none" xmlns="http://www.w3.org/2000/svg">
<path d="M0 0.5H24.5454C47.4567 0.5 58.9123 0.5 67.6632 4.95882C75.3608 8.88092 81.6191 15.1392 85.5412 22.8368C90 31.5877 90 43.0433 90 65.9546V90.5H65.4546C42.5433 90.5 31.0877 90.5 22.3368 86.0412C14.6392 82.1191 8.38092 75.8608 4.45882 68.1632C0 59.4123 0 47.9567 0 25.0454V0.5Z" fill="url(#paint0_linear_900_803)"/>
<path d="M57.9551 59.0176C58.4631 58.5096 59.2869 58.5096 59.7949 59.0176L63.2637 62.4863C63.7716 62.9943 63.7716 63.8182 63.2637 64.3262C62.7557 64.8341 61.9318 64.8341 61.4238 64.3262L57.9551 60.8574C57.4471 60.3494 57.4471 59.5256 57.9551 59.0176ZM44.1328 27.418C53.951 27.418 61.9102 35.3772 61.9102 45.1953C61.9102 55.0135 53.951 62.9726 44.1328 62.9727C34.3147 62.9727 26.3555 55.0135 26.3555 45.1953C26.3555 35.3772 34.3147 27.418 44.1328 27.418ZM44.1328 30.0195C35.7515 30.0195 28.957 36.814 28.957 45.1953C28.957 53.5767 35.7515 60.3711 44.1328 60.3711C52.5142 60.3711 59.3086 53.5767 59.3086 45.1953C59.3086 36.814 52.5142 30.0195 44.1328 30.0195Z" fill="white"/>
<defs>
<linearGradient id="paint0_linear_900_803" x1="5.625" y1="6.6875" x2="90" y2="91.0625" gradientUnits="userSpaceOnUse">
<stop stop-color="#FF8F8F"/>
<stop offset="1" stop-color="#C53131"/>
</linearGradient>
</defs>
</svg>
