<svg width="18" height="18" viewBox="0 0 18 18" fill="none" xmlns="http://www.w3.org/2000/svg">
<path fill-rule="evenodd" clip-rule="evenodd" d="M15.2734 13.3307C15.2734 14.8804 13.9569 16.1367 12.3329 16.1367H6.45197C4.82799 16.1367 3.51149 14.8804 3.51149 13.3307V9.89964C3.51149 9.40147 3.30411 8.9237 2.93497 8.57144C2.07971 7.75528 2.1909 6.40302 3.16908 5.72414L7.66294 2.6053C8.69402 1.88971 10.0909 1.88971 11.122 2.6053L15.6158 5.72414C16.594 6.40302 16.7052 7.75528 15.8499 8.57144C15.4808 8.9237 15.2734 9.40147 15.2734 9.89964V13.3307ZM9.39245 13.3231C10.1694 13.3231 10.7993 12.6932 10.7993 11.9163C10.7993 11.1393 10.1694 10.5095 9.39245 10.5095C8.61549 10.5095 7.98564 11.1393 7.98564 11.9163C7.98564 12.6932 8.61549 13.3231 9.39245 13.3231Z" fill="#FF6B6B"/>
</svg>
