<svg width="37" height="37" viewBox="0 0 37 37" fill="none" xmlns="http://www.w3.org/2000/svg">
<path d="M12.0513 14.9833C13.6039 13.209 15.4603 11.7257 17.5335 10.6029C20.32 9.1585 23.3327 8.20063 26.4417 7.77064C28.3855 7.44861 29.1537 7.73572 29.6115 8.3565C30.0693 8.97727 29.4641 12.8028 27.625 16.5508C25.786 20.2987 22.0768 23.744 21.6888 24.132C21.3008 24.52 21.0758 24.745 21.0758 24.745C21.0758 24.745 23.2214 26.3784 21.4948 28.9818C19.7683 31.5852 17.518 33.1527 15.5781 33.6726C13.6381 34.1925 12.4082 33.1876 12.4742 32.8966C12.5401 32.6056 14.868 31.2787 15.6285 29.5793C16.3889 27.8799 16.1251 27.4299 16.1251 27.4299C15.5858 27.7045 15.017 27.9167 14.4296 28.0623C14.146 27.904 13.885 27.7083 13.6536 27.4803C13.6536 27.4803 12.8777 28.3184 12.7807 28.2524C12.6837 28.1865 11.4072 26.8789 11.4072 26.8789C11.4072 26.8789 8.54386 29.1913 8.15588 29.1603C7.76789 29.1293 6.54186 27.9343 6.73585 27.7403C6.92984 27.5463 9.03273 24.5665 9.03273 24.5665C9.03273 24.5665 8.36927 23.7789 8.43135 23.6781C8.49343 23.5772 9.14524 22.6771 9.14524 22.6771C8.96789 22.4581 8.83003 22.21 8.73786 21.9438C8.73786 21.7498 9.05989 19.9379 9.05989 19.9379C7.94218 20.0517 6.87292 20.4526 5.956 21.1018C4.77652 22.0873 4.29542 24.0272 4.11695 24.0738C3.93847 24.1204 2.67752 23.1853 3.30606 20.2289C3.93459 17.2724 5.43998 15.379 7.41483 14.3431C9.38968 13.3072 11.1822 13.9823 12.0513 14.9833Z" fill="#1D1D1B"/>
<path d="M23.9041 9.27598C24.0515 9.26047 28.4125 8.2905 28.8509 8.791C29.2893 9.2915 28.1215 13.2063 27.9779 13.1558C27.479 12.315 26.852 11.5571 26.1195 10.9094C25.4431 10.2854 24.7002 9.73761 23.9041 9.27598Z" fill="white"/>
<path d="M22.7208 9.38841C23.8901 9.8664 24.9471 10.5826 25.8247 11.4913C27.2486 12.9773 27.6055 13.9162 27.59 14.0947C27.0273 15.729 26.2553 17.2835 25.2931 18.7195C24.783 19.4467 24.2091 20.1271 23.5782 20.7525C23.5782 20.7525 23.7101 19.7515 23.5666 19.7011C23.423 19.6506 23.1592 19.8136 23.1592 19.8136C23.198 20.26 23.2032 20.7088 23.1747 21.156C23.0932 21.2375 22.4492 21.9824 22.4492 21.9824C22.4492 21.9824 22.6742 20.1046 22.5268 20.058C22.3793 20.0115 22.1388 20.027 22.1271 20.1395C22.1155 20.252 22.0457 22.3239 21.9797 22.4829C21.768 22.7433 21.5301 22.9812 21.2697 23.1929C21.2697 23.1929 21.3512 20.5896 21.2852 20.5236C21.2193 20.4576 20.8817 20.446 20.9283 20.6555C20.9365 21.6601 20.8833 22.6643 20.7692 23.6624C20.6877 23.7439 19.8458 24.4849 19.8458 24.4849C19.8458 24.4849 20.0863 21.5285 20.0087 21.4819C19.9311 21.4354 19.6828 21.4819 19.6518 21.575C19.6208 21.6682 19.5548 24.6828 19.4112 24.8264C19.1112 25.0499 18.7977 25.2546 18.4723 25.4394C18.4723 25.4394 18.8758 22.157 18.8137 22.126C18.7517 22.0949 18.4723 22.0484 18.4413 22.1415C18.4102 22.2346 18.0843 25.6644 17.9059 25.7808C17.6537 25.9694 17.3699 26.1113 17.0678 26.1998C16.9669 26.1688 17.4248 23.0339 17.3588 22.9679C17.2928 22.902 17.0174 22.9834 17.0174 22.9834C16.8869 24.1187 16.6992 25.2465 16.4548 26.3628C16.3229 26.4249 15.8883 26.5723 15.8883 26.5723C15.8883 26.5723 16.1948 23.9068 16.156 23.837C16.1172 23.7672 15.737 23.806 15.7331 23.934C15.7091 24.8878 15.6235 25.839 15.4771 26.7818C15.3607 26.8284 14.7166 27.1543 14.7166 27.1543L14.4722 26.9099C14.5956 26.3233 14.6722 25.7278 14.7011 25.129C14.6041 25.032 14.3286 25.0824 14.2627 25.1484C14.1967 25.2144 14.1502 26.5878 14.0532 26.5529C13.9562 26.518 13.0677 25.6295 13.0677 25.6295C13.0677 25.6295 16.6061 22.4791 16.707 22.06C16.7921 21.8061 16.7923 21.5314 16.7076 21.2774C16.6229 21.0233 16.4579 20.8037 16.2375 20.6516C15.4794 20.1225 14.6533 19.6984 13.7816 19.3907C13.1802 19.2161 12.5361 20.0541 12.2917 20.3917C11.7149 21.246 11.0905 22.0672 10.4216 22.8515C10.1105 22.6059 9.82923 22.3246 9.58356 22.0135C9.56029 21.8971 9.67668 19.0725 12.1792 16.1743C14.3155 13.7591 16.9531 11.8392 19.9079 10.5485C21.8672 9.6988 22.7208 9.38841 22.7208 9.38841Z" fill="white"/>
<path d="M13.7854 20.3333C14.0725 20.1393 15.9193 21.4662 15.7874 21.7223C15.6555 21.9784 8.40014 28.1706 8.23718 28.1396C8.07423 28.1086 7.73668 27.996 7.79876 27.802C7.86084 27.6081 13.3004 20.6553 13.7854 20.3333Z" fill="white"/>
<path d="M9.4981 23.1622C9.57957 23.2437 9.88608 23.3872 9.83953 23.5036C9.79297 23.62 9.40498 24.1011 9.37006 24.0352C9.33514 23.9692 8.96656 23.7636 9.01312 23.6161C9.16002 23.4498 9.32241 23.2978 9.4981 23.1622Z" fill="#F2910D"/>
<path d="M12.4894 26.122C12.7938 26.3909 13.066 26.6942 13.3002 27.026C13.2343 27.092 12.7803 27.5459 12.7299 27.4955C12.4178 27.2117 12.131 26.9015 11.8725 26.5682C11.919 26.5217 12.4894 26.122 12.4894 26.122Z" fill="#F2910D"/>
<path d="M20.4897 25.362C20.8146 25.8861 21.0506 26.4603 21.1881 27.0614C21.3006 27.7249 19.7991 29.6454 19.7991 29.6454C19.7991 29.6454 19.4267 27.9771 19.3801 27.9305C19.3335 27.884 18.9262 28.0896 18.9766 28.2331C19.1677 28.8159 19.3194 29.4109 19.4305 30.014C19.1494 30.3248 18.8529 30.6214 18.542 30.9025C18.4606 30.3779 18.3254 29.863 18.1385 29.3661C18.0221 29.3816 17.7971 29.6066 17.8437 29.754C17.9924 30.2473 18.0682 30.7597 18.0687 31.275C17.8264 31.531 17.5615 31.7648 17.2772 31.9733L17.0949 32.0858C17.0949 32.0858 16.9009 30.9219 16.7728 30.8559C16.6448 30.79 16.4159 30.8249 16.4159 31.0189C16.4159 31.2129 16.6603 32.3264 16.5168 32.3768C16.0454 32.6065 15.5344 32.7435 15.0114 32.7803C14.6657 32.7699 14.3234 32.7098 13.9948 32.6019C13.9948 32.6019 16.5323 30.7473 16.9203 29.1953C17.3082 27.6434 17.0328 27.236 17.0328 27.236C17.7209 26.9299 18.3907 26.584 19.0387 26.2001C20.1522 25.5366 20.4897 25.362 20.4897 25.362Z" fill="white"/>
<path d="M11.3915 15.5187C10.8167 16.1805 10.317 16.904 9.90162 17.6759C9.28472 18.8437 9.12565 19.2278 9.12565 19.2278C9.12565 19.2278 8.30312 18.8554 6.58822 19.6934C5.6199 20.133 4.81192 20.8624 4.27582 21.7808C4.27582 21.7808 3.87232 20.2444 5.5717 17.5129C7.27108 14.7815 9.59511 14.1724 11.3915 15.5187Z" fill="white"/>
<path d="M9.56394 16.0191L9.38546 16.4847C9.12091 16.3689 8.83055 16.3248 8.54353 16.3567C8.12451 16.4188 7.84904 16.8882 7.7404 16.8417C7.63177 16.7951 7.39897 16.6011 7.41449 16.5158C7.69138 16.2061 8.03498 15.9633 8.41938 15.8057C8.61254 15.7409 8.81906 15.7264 9.01937 15.7638C9.21968 15.8011 9.40713 15.889 9.56394 16.0191Z" fill="#1D1D1B"/>
<path d="M23.6132 12.5387C24.8082 13.1052 25.7471 15.0606 23.9857 17.0859C22.2242 19.1112 18.7478 18.2499 18.6509 15.856C18.5539 13.4621 20.8468 11.2312 23.6132 12.5387Z" fill="#1D1D1B"/>
<path d="M23.5005 13.4275C23.8019 13.704 23.9951 14.0787 24.0456 14.4846C24.096 14.8905 24.0005 15.3011 23.7759 15.6429C23.4559 16.1224 23.0866 16.5672 22.6741 16.9699C22.902 16.2957 23.0745 15.6041 23.1901 14.9019C23.0931 14.8049 22.7555 14.7234 22.7361 14.8359C22.5842 15.638 22.3688 16.4268 22.0921 17.1949C21.7084 17.3608 21.276 17.3745 20.8826 17.2333C20.4892 17.0921 20.1642 16.8065 19.9737 16.4344C19.2637 15.1424 20.1522 13.4469 21.0872 12.993C22.0222 12.5391 22.7866 12.8145 23.5005 13.4275Z" fill="#DDC07C"/>
<path d="M22.2087 13.4308C22.2431 13.4479 22.273 13.473 22.2957 13.504C22.3185 13.5349 22.3335 13.5709 22.3396 13.6088C22.3457 13.6468 22.3426 13.6856 22.3306 13.7222C22.3187 13.7587 22.2982 13.7918 22.2708 13.8188C22.1738 13.9158 21.5569 13.8188 21.3319 14.0438C21.1068 14.2689 21.1224 14.4163 20.9478 14.3348C20.7732 14.2534 20.49 13.9158 20.5869 13.8188C20.818 13.5669 21.1089 13.3774 21.4328 13.2679C21.7027 13.2236 21.9794 13.2817 22.2087 13.4308Z" fill="#1D1D1B"/>
<path d="M21.8672 14.6413C21.937 14.5714 22.3017 14.6568 22.2862 14.8663C22.2707 15.0758 21.9292 16.5114 21.7352 16.5191C21.5412 16.5269 21.3628 16.5657 21.3317 16.4027C21.4305 15.7942 21.6106 15.2018 21.8672 14.6413Z" fill="#1D1D1B"/>
<path d="M21.1727 14.9793C21.3046 15.0414 20.9321 16.0967 20.8312 16.0967C20.7304 16.0967 20.4782 15.9997 20.4588 15.8562C20.4664 15.5441 20.5322 15.2362 20.6528 14.9483C20.8258 14.913 21.0051 14.9237 21.1727 14.9793Z" fill="#1D1D1B"/>
<path d="M24.7655 11.5877C24.8022 11.6191 24.8297 11.6597 24.8453 11.7054C24.8608 11.7511 24.8638 11.8001 24.8539 11.8473C24.844 11.8945 24.8215 11.9382 24.7889 11.9738C24.7563 12.0093 24.7147 12.0355 24.6685 12.0494C24.6191 12.0615 24.5674 12.0613 24.5181 12.0489C24.4687 12.0364 24.4232 12.0122 24.3853 11.9781C24.3475 11.9441 24.3185 11.9014 24.3009 11.8536C24.2833 11.8059 24.2777 11.7545 24.2844 11.7041C24.301 11.6579 24.3288 11.6166 24.3653 11.5838C24.4018 11.551 24.4459 11.5278 24.4936 11.5163C24.5413 11.5047 24.5911 11.5052 24.6386 11.5177C24.686 11.5301 24.7296 11.5542 24.7655 11.5877Z" fill="#1D1D1B"/>
<path d="M25.8362 12.6973C25.874 12.7282 25.9026 12.7688 25.919 12.8148C25.9355 12.8607 25.9391 12.9103 25.9295 12.9581C25.92 13.006 25.8976 13.0503 25.8647 13.0864C25.8319 13.1225 25.7898 13.1489 25.7431 13.1629C25.6936 13.175 25.642 13.1748 25.5927 13.1624C25.5433 13.15 25.4977 13.1257 25.4599 13.0917C25.422 13.0576 25.3931 13.0149 25.3755 12.9671C25.3579 12.9194 25.3522 12.8681 25.359 12.8176C25.3742 12.7709 25.4011 12.7288 25.437 12.6952C25.4729 12.6617 25.5167 12.6378 25.5644 12.6258C25.6121 12.6137 25.662 12.614 25.7095 12.6265C25.7571 12.639 25.8006 12.6634 25.8362 12.6973Z" fill="#1D1D1B"/>
<path d="M26.1156 14.2881C26.1533 14.319 26.182 14.3596 26.1984 14.4056C26.2149 14.4515 26.2185 14.5011 26.2089 14.5489C26.1994 14.5967 26.1769 14.6411 26.1441 14.6772C26.1113 14.7132 26.0692 14.7397 26.0225 14.7537C25.973 14.7658 25.9214 14.7656 25.872 14.7532C25.8227 14.7407 25.7771 14.7165 25.7393 14.6824C25.7014 14.6484 25.6725 14.6057 25.6549 14.5579C25.6373 14.5102 25.6316 14.4588 25.6384 14.4084C25.6548 14.3626 25.6822 14.3216 25.7182 14.2889C25.7542 14.2562 25.7977 14.2329 25.8449 14.221C25.8921 14.2091 25.9414 14.209 25.9886 14.2207C26.0358 14.2324 26.0794 14.2556 26.1156 14.2881Z" fill="#1D1D1B"/>
<path d="M25.6578 15.9645C25.6956 15.9954 25.7242 16.036 25.7407 16.082C25.7571 16.1279 25.7607 16.1775 25.7512 16.2253C25.7416 16.2731 25.7192 16.3175 25.6864 16.3536C25.6535 16.3896 25.6115 16.4161 25.5647 16.4301C25.5148 16.4417 25.4628 16.4411 25.4132 16.4284C25.3636 16.4156 25.3178 16.391 25.2797 16.3567C25.2416 16.3224 25.2123 16.2795 25.1944 16.2314C25.1765 16.1834 25.1704 16.1318 25.1767 16.0809C25.1933 16.0347 25.2211 15.9934 25.2576 15.9606C25.2942 15.9278 25.3382 15.9046 25.3859 15.8931C25.4336 15.8815 25.4834 15.882 25.5309 15.8945C25.5784 15.907 25.622 15.931 25.6578 15.9645Z" fill="#1D1D1B"/>
<path d="M24.68 17.3614C24.7178 17.3923 24.7464 17.4329 24.7629 17.4788C24.7793 17.5247 24.7829 17.5743 24.7734 17.6221C24.7638 17.67 24.7414 17.7143 24.7086 17.7504C24.6757 17.7865 24.6337 17.8129 24.5869 17.8269C24.5375 17.839 24.4859 17.8388 24.4365 17.8264C24.3871 17.814 24.3416 17.7897 24.3037 17.7557C24.2659 17.7217 24.2369 17.6789 24.2193 17.6312C24.2017 17.5834 24.1961 17.5321 24.2028 17.4816C24.2192 17.4359 24.2466 17.3948 24.2827 17.3621C24.3187 17.3294 24.3622 17.3061 24.4094 17.2942C24.4565 17.2823 24.5059 17.2823 24.5531 17.294C24.6003 17.3057 24.6439 17.3288 24.68 17.3614Z" fill="#1D1D1B"/>
<path d="M23.5394 18.4398C23.5768 18.4702 23.6052 18.5102 23.6215 18.5555C23.6378 18.6008 23.6413 18.6498 23.6317 18.697C23.6221 18.7442 23.5997 18.7879 23.567 18.8233C23.5343 18.8586 23.4926 18.8844 23.4462 18.8977C23.3967 18.9112 23.3445 18.912 23.2945 18.9001C23.2445 18.8883 23.1983 18.864 23.1601 18.8297C23.1219 18.7953 23.0929 18.752 23.0758 18.7035C23.0587 18.6551 23.054 18.6031 23.0621 18.5524C23.0783 18.5062 23.1058 18.4649 23.1421 18.4322C23.1784 18.3995 23.2224 18.3765 23.2699 18.3653C23.3175 18.3541 23.3671 18.355 23.4142 18.3681C23.4613 18.3811 23.5043 18.4058 23.5394 18.4398Z" fill="#1D1D1B"/>
<path d="M21.6151 19.0685C21.6528 19.0994 21.6815 19.14 21.6979 19.1859C21.7143 19.2319 21.718 19.2814 21.7084 19.3293C21.6988 19.3771 21.6764 19.4214 21.6436 19.4575C21.6107 19.4936 21.5687 19.5201 21.522 19.5341C21.472 19.5434 21.4206 19.5404 21.3721 19.5253C21.3236 19.5103 21.2795 19.4837 21.2436 19.4478C21.2077 19.4118 21.181 19.3677 21.166 19.3192C21.151 19.2707 21.148 19.2193 21.1573 19.1694C21.1757 19.1276 21.2037 19.0908 21.2391 19.0619C21.2744 19.033 21.316 19.0128 21.3606 19.003C21.4052 18.9932 21.4515 18.994 21.4957 19.0054C21.5399 19.0168 21.5808 19.0384 21.6151 19.0685Z" fill="#1D1D1B"/>
<path d="M19.8886 18.4205C19.9252 18.4518 19.9528 18.4925 19.9683 18.5382C19.9839 18.5838 19.9868 18.6329 19.9769 18.6801C19.967 18.7273 19.9446 18.771 19.9119 18.8065C19.8793 18.8421 19.8377 18.8682 19.7916 18.8822C19.742 18.8957 19.6898 18.8965 19.6398 18.8847C19.5898 18.8728 19.5436 18.8486 19.5054 18.8142C19.4672 18.7799 19.4382 18.7365 19.4211 18.688C19.404 18.6396 19.3993 18.5876 19.4075 18.5369C19.424 18.4907 19.4518 18.4493 19.4883 18.4166C19.5249 18.3838 19.5689 18.3606 19.6166 18.349C19.6643 18.3375 19.7142 18.338 19.7616 18.3504C19.8091 18.3629 19.8527 18.387 19.8886 18.4205Z" fill="#1D1D1B"/>
<path d="M18.2356 16.9148C18.2733 16.9457 18.302 16.9863 18.3184 17.0323C18.3349 17.0782 18.3385 17.1278 18.3289 17.1756C18.3194 17.2234 18.2969 17.2678 18.2641 17.3039C18.2313 17.3399 18.1892 17.3664 18.1425 17.3804C18.093 17.3925 18.0414 17.3923 17.992 17.3799C17.9427 17.3675 17.8971 17.3432 17.8593 17.3092C17.8214 17.2751 17.7925 17.2324 17.7749 17.1846C17.7573 17.1369 17.7516 17.0855 17.7584 17.0351C17.7748 16.9893 17.8022 16.9483 17.8382 16.9156C17.8742 16.8829 17.9177 16.8596 17.9649 16.8477C18.0121 16.8358 18.0614 16.8357 18.1086 16.8474C18.1558 16.8591 18.1994 16.8823 18.2356 16.9148Z" fill="#1D1D1B"/>
<path d="M17.8827 14.8623C17.9204 14.8932 17.9491 14.9338 17.9655 14.9798C17.982 15.0257 17.9856 15.0753 17.976 15.1231C17.9664 15.171 17.944 15.2153 17.9112 15.2514C17.8783 15.2875 17.8363 15.3139 17.7896 15.3279C17.74 15.3414 17.6878 15.3423 17.6378 15.3304C17.5878 15.3185 17.5416 15.2943 17.5034 15.26C17.4652 15.2256 17.4362 15.1822 17.4191 15.1338C17.402 15.0853 17.3973 15.0333 17.4055 14.9826C17.4219 14.9368 17.4493 14.8958 17.4853 14.8631C17.5213 14.8304 17.5648 14.8071 17.612 14.7952C17.6592 14.7833 17.7085 14.7832 17.7557 14.7949C17.8029 14.8066 17.8465 14.8298 17.8827 14.8623Z" fill="#1D1D1B"/>
<path d="M18.4996 12.9576C18.5374 12.9885 18.566 13.0291 18.5825 13.075C18.5989 13.1209 18.6025 13.1705 18.593 13.2183C18.5834 13.2662 18.561 13.3105 18.5281 13.3466C18.4953 13.3827 18.4532 13.4091 18.4065 13.4231C18.3569 13.4366 18.3048 13.4375 18.2548 13.4256C18.2048 13.4137 18.1586 13.3895 18.1203 13.3552C18.0821 13.3208 18.0531 13.2774 18.036 13.229C18.0189 13.1805 18.0142 13.1286 18.0224 13.0778C18.0388 13.032 18.0662 12.991 18.1022 12.9583C18.1383 12.9256 18.1818 12.9023 18.2289 12.8904C18.2761 12.8785 18.3255 12.8784 18.3727 12.8902C18.4199 12.9019 18.4635 12.925 18.4996 12.9576Z" fill="#1D1D1B"/>
<path d="M20.129 11.4676C20.1668 11.4985 20.1954 11.5391 20.2118 11.585C20.2283 11.6309 20.2319 11.6805 20.2224 11.7283C20.2128 11.7762 20.1904 11.8205 20.1575 11.8566C20.1247 11.8927 20.0826 11.9191 20.0359 11.9332C19.9865 11.9452 19.9348 11.945 19.8855 11.9326C19.8361 11.9202 19.7905 11.8959 19.7527 11.8619C19.7149 11.8279 19.6859 11.7851 19.6683 11.7374C19.6507 11.6896 19.6451 11.6383 19.6518 11.5878C19.6682 11.5421 19.6956 11.501 19.7316 11.4683C19.7677 11.4356 19.8112 11.4123 19.8583 11.4004C19.9055 11.3885 19.9549 11.3885 20.0021 11.4002C20.0493 11.4119 20.0929 11.435 20.129 11.4676Z" fill="#1D1D1B"/>
<path d="M22.0262 10.9284C22.064 10.9593 22.0926 10.9999 22.109 11.0458C22.1255 11.0917 22.1291 11.1413 22.1195 11.1891C22.11 11.237 22.0876 11.2813 22.0547 11.3174C22.0219 11.3535 21.9798 11.3799 21.9331 11.3939C21.8832 11.4032 21.8317 11.4002 21.7832 11.3852C21.7347 11.3701 21.6906 11.3435 21.6547 11.3076C21.6188 11.2717 21.5922 11.2276 21.5771 11.1791C21.5621 11.1306 21.5591 11.0792 21.5684 11.0292C21.5869 10.9875 21.6149 10.9507 21.6502 10.9218C21.6855 10.8929 21.7272 10.8727 21.7718 10.8629C21.8163 10.8531 21.8626 10.8539 21.9068 10.8652C21.951 10.8766 21.9919 10.8982 22.0262 10.9284Z" fill="#1D1D1B"/>
<path d="M23.5355 11.1339C23.5732 11.1648 23.6019 11.2054 23.6183 11.2514C23.6348 11.2973 23.6384 11.3468 23.6288 11.3947C23.6192 11.4425 23.5968 11.4869 23.564 11.523C23.5311 11.559 23.4891 11.5855 23.4424 11.5995C23.3924 11.6088 23.341 11.6058 23.2925 11.5908C23.244 11.5757 23.1999 11.5491 23.164 11.5132C23.1281 11.4773 23.1015 11.4332 23.0864 11.3847C23.0714 11.3362 23.0684 11.2847 23.0777 11.2348C23.0961 11.1931 23.1242 11.1562 23.1595 11.1273C23.1948 11.0984 23.2365 11.0783 23.281 11.0684C23.3256 11.0586 23.3719 11.0594 23.4161 11.0708C23.4603 11.0822 23.5012 11.1038 23.5355 11.1339Z" fill="#1D1D1B"/>
</svg>
