<svg width="16" height="17" viewBox="0 0 16 17" fill="none" xmlns="http://www.w3.org/2000/svg">
<g clip-path="url(#clip0_900_1535)">
<path d="M8.21491 13.2664L4.40399 15.5622C4.23563 15.6693 4.05963 15.7152 3.87597 15.6999C3.69231 15.6846 3.53161 15.6234 3.39386 15.5163C3.25612 15.4091 3.14898 15.2754 3.07246 15.115C2.99593 14.9546 2.98063 14.7746 3.02654 14.575L4.03667 10.2361L0.661934 7.32047C0.508884 7.18273 0.413382 7.0257 0.375425 6.84939C0.337469 6.67308 0.348795 6.50105 0.409402 6.33331C0.47001 6.16557 0.561839 6.02782 0.684891 5.92007C0.807942 5.81233 0.976296 5.74346 1.18995 5.71346L5.64369 5.32318L7.36549 1.23677C7.44201 1.05311 7.56078 0.915365 7.72179 0.823535C7.8828 0.731706 8.04717 0.685791 8.21491 0.685791C8.38265 0.685791 8.54703 0.731706 8.70804 0.823535C8.86904 0.915365 8.98781 1.05311 9.06434 1.23677L10.7861 5.32318L15.2399 5.71346C15.4541 5.74407 15.6225 5.81294 15.7449 5.92007C15.8674 6.02721 15.9592 6.16495 16.0204 6.33331C16.0816 6.50166 16.0933 6.67399 16.0553 6.85031C16.0174 7.02662 15.9216 7.18334 15.7679 7.32047L12.3932 10.2361L13.4033 14.575C13.4492 14.774 13.4339 14.954 13.3574 15.115C13.2808 15.276 13.1737 15.4097 13.036 15.5163C12.8982 15.6228 12.7375 15.684 12.5539 15.6999C12.3702 15.7158 12.1942 15.6699 12.0258 15.5622L8.21491 13.2664Z" fill="#FFDA71"/>
</g>
<defs>
<clipPath id="clip0_900_1535">
<rect width="15.5142" height="15.5142" fill="white" transform="translate(0.457504 0.596924)"/>
</clipPath>
</defs>
</svg>
