<svg width="18" height="19" viewBox="0 0 18 19" fill="none" xmlns="http://www.w3.org/2000/svg">
<path d="M7.31266 0.344727C8.34683 -0.114774 9.52755 -0.114888 10.5617 0.344727L15.5392 2.55762C16.9948 3.20455 17.9506 4.65844 17.8488 6.24805C17.4576 12.3458 15.7137 15.1028 11.0011 18.3008C9.75758 19.1445 8.11767 19.1422 6.87321 18.2998C2.17509 15.1191 0.366633 12.4008 0.00699997 6.22656C-0.084797 4.64743 0.869123 3.20885 2.31462 2.56641L7.31266 0.344727ZM12.4308 7.05859C12.1191 6.78601 11.645 6.81736 11.3722 7.12891L8.50212 10.4092C8.41401 10.5096 8.26274 10.5229 8.15837 10.4395L6.40544 9.03711C6.082 8.77849 5.60947 8.8309 5.35075 9.1543C5.09212 9.47769 5.14466 9.95023 5.46794 10.209L7.22087 11.6113C7.95211 12.1962 9.01435 12.1011 9.63102 11.3965L12.5011 8.11719C12.7739 7.80551 12.7424 7.33137 12.4308 7.05859Z" fill="#FF6B6B"/>
</svg>
