<svg width="19" height="18" viewBox="0 0 19 18" fill="none" xmlns="http://www.w3.org/2000/svg">
<path d="M9.50001 14.9956L5.17709 17.5997C4.98612 17.7213 4.78647 17.7733 4.57813 17.756C4.3698 17.7386 4.18751 17.6692 4.03126 17.5476C3.87501 17.4261 3.75348 17.2744 3.66667 17.0924C3.57987 16.9105 3.56251 16.7063 3.61459 16.4799L4.76042 11.5581L0.932299 8.25077C0.758688 8.09452 0.650354 7.9164 0.607299 7.7164C0.564243 7.5164 0.57709 7.32126 0.64584 7.13098C0.71459 6.9407 0.818757 6.78445 0.95834 6.66223C1.09792 6.54001 1.2889 6.46188 1.53126 6.42786L6.58334 5.98515L8.53646 1.34973C8.62327 1.1414 8.75799 0.985148 8.94063 0.880981C9.12327 0.776815 9.30973 0.724731 9.50001 0.724731C9.69028 0.724731 9.87674 0.776815 10.0594 0.880981C10.242 0.985148 10.3767 1.1414 10.4635 1.34973L12.4167 5.98515L17.4688 6.42786C17.7118 6.46258 17.9028 6.5407 18.0417 6.66223C18.1806 6.78376 18.2847 6.94001 18.3542 7.13098C18.4236 7.32195 18.4368 7.51744 18.3938 7.71744C18.3507 7.91744 18.242 8.09522 18.0677 8.25077L14.2396 11.5581L15.3854 16.4799C15.4375 16.7056 15.4201 16.9098 15.3333 17.0924C15.2465 17.2751 15.125 17.4268 14.9688 17.5476C14.8125 17.6685 14.6302 17.7379 14.4219 17.756C14.2135 17.774 14.0139 17.722 13.8229 17.5997L9.50001 14.9956Z" fill="#FDB941"/>
</svg>
