<svg width="42" height="41" viewBox="0 0 42 41" fill="none" xmlns="http://www.w3.org/2000/svg">
<rect width="42" height="40.7998" rx="20.3999" fill="#EB3737"/>
<path d="M21 21.5996C24.9765 21.5996 28.2002 23.212 28.2002 25.2002C28.2001 27.1884 24.9764 28.7998 21 28.7998C17.0236 28.7998 13.7999 27.1884 13.7998 25.2002C13.7998 23.212 17.0236 21.5996 21 21.5996ZM14.2578 21.623C12.8529 22.5756 12 23.8281 12 25.2002C12 25.9781 12.2741 26.7176 12.7676 27.3857C10.5596 26.9429 9.00032 25.8628 9 24.6006C9 23.0694 11.2943 21.8059 14.2578 21.623ZM27.7422 21.623C30.7057 21.8059 33 23.0694 33 24.6006C32.9997 25.8628 31.4404 26.9429 29.2324 27.3857C29.7259 26.7176 30 25.9781 30 25.2002C30 23.8282 29.1471 22.5756 27.7422 21.623ZM15 14.4004C15.2474 14.4004 15.4864 14.4373 15.7109 14.5068C15.6384 14.8597 15.5996 15.2253 15.5996 15.5996C15.5996 16.7281 15.9462 17.7762 16.5381 18.6426C16.1216 18.9906 15.5852 19.2002 15 19.2002C13.6745 19.2002 12.5996 18.1253 12.5996 16.7998C12.5997 15.4744 13.6746 14.4004 15 14.4004ZM21 12C22.9881 12 24.6004 13.6115 24.6006 15.5996C24.6006 17.5879 22.9882 19.2002 21 19.2002C19.0118 19.2002 17.4004 17.5878 17.4004 15.5996C17.4006 13.6116 19.0119 12 21 12ZM27 14.4004C28.3254 14.4004 29.4003 15.4744 29.4004 16.7998C29.4004 18.1253 28.3255 19.2002 27 19.2002C26.4148 19.2002 25.8784 18.9906 25.4619 18.6426C26.0538 17.7762 26.4004 16.7281 26.4004 15.5996C26.4004 15.2253 26.3616 14.8597 26.2891 14.5068C26.5136 14.4373 26.7526 14.4004 27 14.4004Z" fill="#FFF4EC"/>
</svg>
