<svg width="80" height="80" viewBox="0 0 80 80" fill="none" xmlns="http://www.w3.org/2000/svg">
<rect width="80" height="80" rx="16" fill="url(#paint0_linear_900_943)"/>
<g clip-path="url(#clip0_900_943)">
<path fill-rule="evenodd" clip-rule="evenodd" d="M37.001 22.5C31.0547 26.2693 25.6824 28.0528 21.0721 27.6312C20.2669 43.9172 26.2814 53.5358 36.9396 57.55C38.0883 57.1307 39.184 56.6431 40.2236 56.085C39.8666 55.9475 39.5423 55.737 39.2712 55.467L39.2667 55.4617L39.2621 55.467C39.0347 55.2396 38.8466 54.9719 38.7109 54.6762C38.1376 54.9416 37.5477 55.1857 36.9403 55.4071C27.5856 51.8843 22.3066 43.4417 23.0125 29.1462C27.0594 29.5162 31.775 27.9512 36.9949 24.6421C41.5111 28.1506 46.1722 29.178 50.9227 28.9293C50.9621 30.4428 50.9432 31.8843 50.8696 33.2583C51.4967 33.35 52.1094 33.5616 52.7008 33.9081C52.8715 31.8744 52.9306 29.702 52.8692 27.384C47.4575 27.6676 42.1466 26.4968 37.001 22.5ZM41.1828 53.8254C41.1461 53.8255 41.1098 53.8184 41.0759 53.8044C41.042 53.7904 41.0112 53.7698 40.9853 53.7439C40.9594 53.718 40.9388 53.6872 40.9248 53.6533C40.9108 53.6194 40.9037 53.583 40.9038 53.5464C40.9038 53.4667 40.9151 53.3886 40.9333 53.3105C41.3815 49.7634 42.9496 49.6997 44.9218 49.1863C45.5095 49.0332 46.5854 48.9513 47.2118 48.4031C47.5568 48.0998 47.7653 47.4833 47.6819 47.0382C47.2065 46.5961 46.8395 46.1184 46.7561 45.2077L46.6992 45.2085C46.5665 45.2062 46.4383 45.1774 46.3201 45.1092C46.0569 44.9583 45.9129 44.6739 45.8431 44.3456C45.7551 43.9323 45.7847 43.441 45.8279 43.1316L45.8431 43.0702C45.9349 42.8147 46.0486 42.6759 46.1934 42.616L46.1972 42.6137C46.1312 41.3831 46.339 39.4336 45.0757 39.0499C47.5712 35.9653 50.4496 34.2865 52.6106 37.0314C55.0181 37.158 56.0918 40.7067 54.5965 42.616H54.5336C54.6769 42.6759 54.7906 42.8147 54.8824 43.0702L54.8991 43.1316C54.9423 43.441 54.9711 43.9323 54.8824 44.3456C54.8126 44.6739 54.6693 44.9583 54.4062 45.1092C54.2879 45.1774 54.1597 45.2062 54.0278 45.2085L53.9702 45.2077C53.8875 46.1184 53.5205 46.5961 53.0451 47.0382C52.9602 47.4833 53.1702 48.0998 53.5145 48.4031C54.1415 48.9513 55.2168 49.0324 55.8059 49.1863C57.7774 49.6997 59.3455 49.7634 59.7937 53.3105C59.8118 53.3886 59.8232 53.4667 59.8232 53.5464C59.8232 53.7011 59.6981 53.8254 59.5442 53.8254H41.1828ZM36.8281 28.1748C32.8063 30.7234 29.1734 31.929 26.0562 31.6447C25.5118 42.6569 29.5783 49.1606 36.7856 51.8752C36.8311 51.8585 36.8759 51.841 36.9214 51.8244V28.2461L36.8281 28.1748Z" fill="white"/>
</g>
<defs>
<linearGradient id="paint0_linear_900_943" x1="5.6" y1="4" x2="75.2" y2="75.2" gradientUnits="userSpaceOnUse">
<stop stop-color="#7FBDF4" stop-opacity="0.933333"/>
<stop offset="0.902782" stop-color="#0088FF"/>
</linearGradient>
<clipPath id="clip0_900_943">
<rect width="38.8231" height="35.05" fill="white" transform="translate(21 22.5)"/>
</clipPath>
</defs>
</svg>
