<svg width="34" height="34" viewBox="0 0 34 34" fill="none" xmlns="http://www.w3.org/2000/svg">
<mask id="mask0_900_1392" style="mask-type:luminance" maskUnits="userSpaceOnUse" x="0" y="0" width="34" height="34">
<path d="M34 0H0V34H34V0Z" fill="white"/>
</mask>
<g mask="url(#mask0_900_1392)">
<path d="M30.0156 0H3.98438C1.78387 0 0 1.78387 0 3.98438V30.0156C0 32.2161 1.78387 34 3.98438 34H30.0156C32.2161 34 34 32.2161 34 30.0156V3.98438C34 1.78387 32.2161 0 30.0156 0Z" fill="white"/>
<path d="M23.6328 6.64062H27.1475L19.4688 15.4169L28.5022 27.3594H21.4291L15.8893 20.1163L9.5504 27.3594H6.03356L14.2466 17.9722L5.58093 6.64062H12.8335L17.8411 13.2611L23.6328 6.64062ZM22.3992 25.2556H24.3468L11.7753 8.63388H9.68534L22.3992 25.2556Z" fill="black"/>
</g>
</svg>
